<svg id="Capa_1" data-name="Capa 1" xmlns="http://www.w3.org/2000/svg" viewBox="0 0 515 290"><defs><style>.cls-1{fill:#e5e5e5;}.cls-2{fill:#fff;}</style></defs><rect class="cls-1" x="0.2" y="-0.32" width="514.58" height="288.81"/><path class="cls-2" d="M211.21,154.6a9.28,9.28,0,0,1,2.87-5.18,8.17,8.17,0,0,1,8.93-1.48,8,8,0,0,1,5.19,7.49c.11,2.74,0,5.48,0,8.22v1h58.49v-1c0-2.47,0-4.94,0-7.41,0-4.87,3.08-8.47,7.75-8.94a8.45,8.45,0,0,1,9.15,7.07.72.72,0,0,0,.12.23v19.7c-.06.23-.13.46-.19.69a8.25,8.25,0,0,1-4.13,5.59,21,21,0,0,1-3.09,1.13H218.62a5.72,5.72,0,0,0-.59-.17,8.45,8.45,0,0,1-6.35-5.61c-.19-.53-.31-1.08-.47-1.63Zm46.25,21.69h37.32c2.35,0,3.55-1.21,3.55-3.57V156.19c0-2.08-1.24-3.5-3.06-3.52s-3.11,1.39-3.11,3.45c0,3.52,0,7,0,10.57,0,2.41-1,3.43-3.39,3.43H226.15c-2.34,0-3.34-1-3.34-3.37,0-3.62,0-7.23,0-10.84a3,3,0,0,0-2.26-3.11,3.08,3.08,0,0,0-3.9,3.17q0,8.31,0,16.63c0,2.54,1.17,3.7,3.69,3.7Z"/><path class="cls-2" d="M258.75,89.17c2.7.54,4.6,2.28,6.46,4.17,4.86,4.94,9.8,9.79,14.67,14.72a8.51,8.51,0,0,1-4.63,14.45,8,8,0,0,1-6.94-2,26.1,26.1,0,0,1-2-2.2l-.32.16v.93q0,15.18,0,30.35a8.5,8.5,0,0,1-17,.46c-.06-10.24,0-20.48,0-30.72v-1.2c-.81.8-1.47,1.47-2.17,2.11a8.51,8.51,0,0,1-11.59-12.47q6.63-6.66,13.28-13.29c.43-.43.87-.83,1.28-1.28a11.92,11.92,0,0,1,6.45-4.18Zm1.81,41.75h0c0-6.23,0-12.47,0-18.7a2.8,2.8,0,0,1,5-2.06q3,3.07,6.07,6.08a3.08,3.08,0,0,0,4.45.05,3,3,0,0,0-.05-4.38q-8.15-8.2-16.35-16.36a3,3,0,0,0-4.44,0q-8.21,8.16-16.34,16.38a3.84,3.84,0,0,0-.93,2,2.92,2.92,0,0,0,1.72,3,3.05,3.05,0,0,0,3.57-.66c2.11-2.08,4.16-4.2,6.29-6.24a3.59,3.59,0,0,1,1.78-.94c1.75-.27,3,1,3,3q0,11.83,0,23.67c0,4.73,0,9.46,0,14.19a3.08,3.08,0,1,0,6.16-.07Q260.58,140.38,260.56,130.92Z"/></svg>