<svg id="Capa_1" data-name="Capa 1" xmlns="http://www.w3.org/2000/svg" viewBox="0 0 242 213"><defs><style>.cls-1{fill:#e5e5e5;}.cls-2{fill:#fff;}</style></defs><rect class="cls-1" x="-0.34" y="-0.73" width="242.29" height="213.2"/><path class="cls-2" d="M74.53,124.79a9.19,9.19,0,0,1,2.87-5.18,8.15,8.15,0,0,1,8.93-1.48,8,8,0,0,1,5.19,7.49c.11,2.74,0,5.48,0,8.22v1h58.49v-1c0-2.47,0-4.94,0-7.41,0-4.88,3.09-8.48,7.76-8.94a8.44,8.44,0,0,1,9.14,7.07,1.34,1.34,0,0,0,.13.23v19.7c-.06.23-.13.45-.19.68a8.22,8.22,0,0,1-4.13,5.59,21.5,21.5,0,0,1-3.09,1.14H81.94c-.2-.06-.39-.13-.59-.18a8.42,8.42,0,0,1-6.35-5.6c-.2-.53-.32-1.09-.47-1.63Zm46.25,21.69H158.1c2.34,0,3.55-1.22,3.55-3.57V126.37c0-2.07-1.24-3.49-3.06-3.52s-3.11,1.4-3.12,3.46c0,3.52,0,7,0,10.57,0,2.4-1,3.43-3.39,3.43H89.47c-2.34,0-3.34-1-3.34-3.37,0-3.62,0-7.23,0-10.85a3,3,0,0,0-2.26-3.1,3.08,3.08,0,0,0-3.9,3.17c0,5.54,0,11.08,0,16.62,0,2.54,1.16,3.71,3.69,3.71Z"/><path class="cls-2" d="M122.07,59.36c2.7.54,4.6,2.28,6.46,4.17,4.85,4.94,9.8,9.79,14.67,14.71a8.52,8.52,0,0,1-4.63,14.45,8,8,0,0,1-6.95-2c-.73-.66-1.33-1.46-2-2.19l-.31.16v.92q0,15.18,0,30.36a8.5,8.5,0,0,1-17,.45c-.07-10.23,0-20.47,0-30.71v-1.2c-.82.79-1.48,1.47-2.17,2.1a8.51,8.51,0,0,1-11.6-12.46q6.63-6.66,13.29-13.29c.43-.43.87-.84,1.27-1.28a11.87,11.87,0,0,1,6.46-4.18Zm1.81,41.75h0c0-6.23,0-12.47,0-18.71a2.8,2.8,0,0,1,5-2.05q3,3.06,6.07,6.07a3.09,3.09,0,1,0,4.4-4.33q-8.15-8.2-16.35-16.36a3,3,0,0,0-4.45,0q-8.19,8.16-16.34,16.37a4,4,0,0,0-.92,2,2.89,2.89,0,0,0,1.72,3,3,3,0,0,0,3.57-.66c2.11-2.07,4.16-4.19,6.29-6.24a3.62,3.62,0,0,1,1.77-.93c1.76-.27,3,1,3,2.94q0,11.85,0,23.68c0,4.73,0,9.46,0,14.19a3.08,3.08,0,1,0,6.16-.07Q123.9,110.55,123.88,101.11Z"/></svg>