<svg id="Capa_1" data-name="Capa 1" xmlns="http://www.w3.org/2000/svg" viewBox="0 0 182 112"><defs><style>.cls-1{fill:#18c65e;}.cls-2{fill:#fff;}</style></defs><rect class="cls-1" width="182" height="112"/><path class="cls-2" d="M122.37,33.41h0L59.16,45.23a1.28,1.28,0,0,0-1,1,1.26,1.26,0,0,0,.55,1.32l17.23,11.5,2.76,18.46a1.28,1.28,0,0,0,2,.88h0L92.8,70.3l12.13,8.09a1.28,1.28,0,0,0,1.91-.59l17-42.65h0A1.29,1.29,0,0,0,122.37,33.41Zm-8.06,4.12L77.19,56.81,62.74,47.18Zm-5.09,5.54L83.68,62.16a1.33,1.33,0,0,0-.45.63h0l-2.81,8.86L78.52,59ZM82.29,74.22l2.87-9,5.32,3.55ZM105,75.38,86.67,63.13l33.06-24.7Z"/></svg>