<svg id="Capa_1" data-name="Capa 1" xmlns="http://www.w3.org/2000/svg" viewBox="0 0 32 38"><defs><style>.cls-1{fill:#18c65e;}</style></defs><path class="cls-1" d="M26.5,14.19a1.93,1.93,0,0,0-.28-1h0l0-.06v0l0,0,0,0,0,0,0,0,0,0a.69.69,0,0,0-.11-.13l-1.73-1.72a2,2,0,0,0-2.8,0L9.16,23.3l0,0v0h0l0,0v0h0l0,0h0L7.47,29a.4.4,0,0,0,.1.39.45.45,0,0,0,.29.12l.11,0,5.55-1.59h.1l0,0h0l0,0,.6-.6L25.92,15.6A2,2,0,0,0,26.5,14.19Zm-2.87-2.56,1.73,1.72a1.2,1.2,0,0,1,0,1.68L13.41,27,10,23.58,22,11.63A1.21,1.21,0,0,1,23.63,11.63Zm-14,12.7,3,3-4.22,1.2Z"/><path class="cls-1" d="M12.33,24.65a.4.4,0,0,0,.29.12.39.39,0,0,0,.28-.12L24,13.54a.4.4,0,0,0-.56-.56L12.33,24.09A.4.4,0,0,0,12.33,24.65Z"/></svg>