<svg xmlns="http://www.w3.org/2000/svg" viewBox="0 0 178 178"><defs><style>.cls-1,.cls-2{fill:none;stroke:#18c65e;stroke-miterlimit:10;}.cls-2{stroke-width:4px;}.cls-3{fill:#303130;}</style></defs><g id="Medidas"><path class="cls-1" d="M167.77,90.57a79.19,79.19,0,1,0-79.19,79.19A79.18,79.18,0,0,0,167.77,90.57Z"/><path class="cls-2" d="M158.49,121.93A76.61,76.61,0,1,0,57.23,160.48,76.61,76.61,0,0,0,158.49,121.93Z"/><path class="cls-3" d="M128.73,43.73H48.44a6.71,6.71,0,0,0-6.7,6.7v62.9a6.71,6.71,0,0,0,6.7,6.69H79.36a7.82,7.82,0,0,1-3.3,6.71,6.69,6.69,0,0,0-6.21,6.67v2.68a1.34,1.34,0,0,0,1.34,1.34H106a1.34,1.34,0,0,0,1.34-1.34V133.4a6.68,6.68,0,0,0-6.17-6.66A8.73,8.73,0,0,1,97.88,120h30.85a6.71,6.71,0,0,0,6.7-6.69V50.43A6.71,6.71,0,0,0,128.73,43.73ZM48.44,46.41h80.29a4,4,0,0,1,4,4v52.19H44.42V50.43A4,4,0,0,1,48.44,46.41Zm56.2,87v1.34H72.53V133.4a4,4,0,0,1,4-4h24.09A4,4,0,0,1,104.64,133.4Zm-7.17-6.69H79.87A10,10,0,0,0,82.08,120H95.17A11.1,11.1,0,0,0,97.47,126.71Zm31.26-9.37H48.44a4,4,0,0,1-4-4v-8h88.33v8A4,4,0,0,1,128.73,117.34Z"/><path class="cls-3" d="M88.58,106.74a4.58,4.58,0,1,0,4.58,4.58A4.58,4.58,0,0,0,88.58,106.74Zm0,6.48a1.9,1.9,0,1,1,1.91-1.9A1.9,1.9,0,0,1,88.58,113.22Z"/><path class="cls-3" d="M67.17,95.93H110a1.45,1.45,0,0,0,.46-.09l.1,0a1.21,1.21,0,0,0,.35-.24l.07-.08.12-.13s0-.07,0-.11a1.31,1.31,0,0,0,.12-.27,2,2,0,0,0,0-.24s0-.09,0-.14V71.84a.14.14,0,0,0,0-.06v-.09a1.09,1.09,0,0,0-.08-.31.3.3,0,0,0,0-.1l0-.08s0-.09-.07-.14a.68.68,0,0,0-.12-.12l-.09-.08s0,0,0,0l-.14-.12h0l-21.27-18a1.35,1.35,0,0,0-1.73,0L66.31,70.82a.12.12,0,0,0,0,.05l-.06.06a1.51,1.51,0,0,0-.25.37s0,0,0,.06a1.52,1.52,0,0,0-.1.48h0V94.59A1.34,1.34,0,0,0,67.17,95.93Zm41.49-3.88L95.81,83.21l12.85-8.83ZM92.84,82a1.25,1.25,0,0,0-.3.21l-1.68,1.15a4,4,0,0,1-4.55,0L71.48,73.18h34.21ZM68.51,74.38l12.84,8.83L68.51,92.05Zm3,18.87,12.24-8.41,1.07.74a6.74,6.74,0,0,0,7.59,0l1.07-.74,12.24,8.41Zm17.1-37.73,17.76,15H70.83Z"/></g></svg>