<svg xmlns="http://www.w3.org/2000/svg" viewBox="0 0 178 178"><defs><style>.cls-1{fill:#303130;}.cls-2,.cls-3{fill:none;stroke:#18c65e;stroke-miterlimit:10;}.cls-3{stroke-width:4px;}</style></defs><g id="Medidas"><path class="cls-1" d="M92.65,42c.53.16,1.08.3,1.61.47A9.65,9.65,0,0,1,101,51.42c0,1.13,0,2.27,0,3.4a1.64,1.64,0,0,1-1.59,1.77,1.66,1.66,0,0,1-1.63-1.74c0-1.13,0-2.27,0-3.41a6.48,6.48,0,0,0-6.33-6.19,1,1,0,0,0-1.07.68c-1,2-2,3.88-2.9,5.84a5.2,5.2,0,0,1-5.2,3.2q-10.37-.07-20.73,0a5.12,5.12,0,0,1-5.12-3.16c-.94-2-2-3.87-2.9-5.84a1.11,1.11,0,0,0-1.24-.71,6.49,6.49,0,0,0-6.21,6.52c0,6.22,0,12.43,0,18.65v58.14c0,4.62,2.61,7.24,7.2,7.24h37.4c4.25,0,6.7-2.23,7.13-6.45a1.62,1.62,0,1,1,3.22.2,9.7,9.7,0,0,1-7.74,9.28,6.17,6.17,0,0,0-.61.19H51.16c-.2-.06-.4-.15-.6-.2a9.67,9.67,0,0,1-7.27-6.54c-.18-.52-.31-1.06-.47-1.59V50.37c.07-.2.15-.4.2-.6a9.44,9.44,0,0,1,4.83-6.5A24.24,24.24,0,0,1,51.16,42ZM56.78,45.32c1,1.94,1.83,3.79,2.84,5.57a2,2,0,0,0,1.47.79q10.84.07,21.69,0A1.79,1.79,0,0,0,84.13,51c1-1.83,1.93-3.72,2.94-5.7Z"/><path class="cls-1" d="M139.82,116.11a20.5,20.5,0,0,1-.85,2.58,9.43,9.43,0,0,1-9.11,5.77q-14.07,0-28.13,0c-5.62,0-11.24,0-16.86,0a9.59,9.59,0,0,1-9.55-8,13.13,13.13,0,0,1-.14-2.26c0-3,0-5.94,0-8.91a1.26,1.26,0,0,0-.8-1.3c-5.49-2.91-11-5.85-16.46-8.75a3.32,3.32,0,0,1,0-6.23c5.47-2.88,10.91-5.81,16.38-8.69a1.39,1.39,0,0,0,.89-1.44c0-3,0-5.94,0-8.9,0-6.07,4.11-10.17,10.16-10.17h44.24c5.35,0,9,2.9,10.1,8.12a1,1,0,0,0,.15.23ZM59,92.14l1,.53c5.64,3,11.28,6,17,9a2.5,2.5,0,0,1,1.51,2.55c-.06,3.37,0,6.75,0,10.13,0,4.18,2.7,6.87,6.87,6.87h44.42c4.19,0,6.89-2.69,6.89-6.85q0-22.22,0-44.42c0-4.17-2.71-6.9-6.86-6.9H85.22c-4.13,0-6.79,2.69-6.81,6.83,0,3.51,0,7,0,10.51a2.08,2.08,0,0,1-1.22,2c-1.74.89-3.45,1.84-5.18,2.76Z"/><path class="cls-1" d="M71.9,129.35c4.23,0,8.46,0,12.69,0a1.62,1.62,0,0,1,1.8,1.19,1.59,1.59,0,0,1-1.62,2c-1.3,0-2.59,0-3.88,0h-21c-.26,0-.51,0-.76,0a1.62,1.62,0,0,1-1.72-1.63,1.56,1.56,0,0,1,1.73-1.59H71.9Z"/><path class="cls-1" d="M84.85,84.29a18.26,18.26,0,0,1,4.86-12.56,6.54,6.54,0,0,1,9.48-.27c1.6,1.52,3.16,3.09,4.68,4.69a6.4,6.4,0,0,1,0,9c-1,1-2,2-3,3a.72.72,0,0,0-.08,1.13,45.28,45.28,0,0,0,9.6,9.6.76.76,0,0,0,1.2-.12c.87-.91,1.77-1.8,2.67-2.68a6.59,6.59,0,0,1,9.57,0c1.45,1.41,2.88,2.83,4.29,4.28a6.42,6.42,0,0,1-.24,9.64c-4.19,3.85-9.24,5.1-14.78,4.73a23.71,23.71,0,0,1-14-5.85A51.1,51.1,0,0,1,88.42,97.26,23.69,23.69,0,0,1,84.85,84.29Zm3.24-.47A21.87,21.87,0,0,0,92,96.9a48.69,48.69,0,0,0,10.07,10.2,20.32,20.32,0,0,0,11.1,4.39,15.68,15.68,0,0,0,12.45-3.88,3.22,3.22,0,0,0,.16-5q-2.16-2.2-4.35-4.36a3.23,3.23,0,0,0-4.87,0c-1,1-2,2-3,3a3.6,3.6,0,0,1-4.9.34A47.18,47.18,0,0,1,98,91a3.61,3.61,0,0,1,.42-5c1-1,1.92-1.91,2.88-2.88a3.26,3.26,0,0,0,0-5Q99.17,76,97,73.84a3.2,3.2,0,0,0-4.92.09A14.74,14.74,0,0,0,88.09,83.82Z"/><path class="cls-2" d="M170.5,90.53a79.19,79.19,0,1,0-79.18,79.19A79.18,79.18,0,0,0,170.5,90.53Z"/><path class="cls-3" d="M161.22,121.89A76.61,76.61,0,1,0,60,160.44,76.61,76.61,0,0,0,161.22,121.89Z"/></g></svg>