<svg id="Capa_1" data-name="Capa 1" xmlns="http://www.w3.org/2000/svg" viewBox="0 0 281 74"><defs><style>.cls-1{fill:#fff;}.cls-2,.cls-3{fill:none;stroke:#18c65e;stroke-miterlimit:10;}.cls-3{stroke-width:4px;}</style></defs><path class="cls-1" d="M107.79,29.75h-8.4l-1.66,3.89H94.52l7.56-16.81h3.07l7.58,16.81h-3.26Zm-1-2.45L103.59,20l-3.14,7.34Z"/><path class="cls-1" d="M113,32.36l1.15-2.28a8.58,8.58,0,0,0,4.46,1.28c1.9,0,2.69-.53,2.69-1.42,0-2.45-7.92-.15-7.92-5.26,0-2.42,2.19-4,5.64-4a10.13,10.13,0,0,1,4.8,1.1l-1.15,2.28a7,7,0,0,0-3.67-1c-1.83,0-2.69.6-2.69,1.44,0,2.59,7.92.29,7.92,5.3,0,2.4-2.21,4-5.81,4A10.14,10.14,0,0,1,113,32.36Z"/><path class="cls-1" d="M138.82,28.19h-10a3.88,3.88,0,0,0,4.15,3.07,4.61,4.61,0,0,0,3.48-1.39L138,31.72a6.54,6.54,0,0,1-5.16,2.08c-4.3,0-7.08-2.76-7.08-6.57a6.36,6.36,0,0,1,6.62-6.55,6.25,6.25,0,0,1,6.48,6.62C138.87,27.54,138.85,27.9,138.82,28.19Zm-10.08-2H136a3.48,3.48,0,0,0-3.62-3.12A3.54,3.54,0,0,0,128.74,26.2Z"/><path class="cls-1" d="M140.29,32.36l1.15-2.28a8.56,8.56,0,0,0,4.46,1.28c1.9,0,2.69-.53,2.69-1.42,0-2.45-7.92-.15-7.92-5.26,0-2.42,2.18-4,5.64-4a10.16,10.16,0,0,1,4.8,1.1L150,24.06a7,7,0,0,0-3.67-1c-1.83,0-2.69.6-2.69,1.44,0,2.59,7.92.29,7.92,5.3,0,2.4-2.21,4-5.81,4A10.12,10.12,0,0,1,140.29,32.36Z"/><path class="cls-1" d="M153.05,27.23a6.45,6.45,0,0,1,6.82-6.55c4,0,6.84,2.71,6.84,6.55s-2.86,6.57-6.84,6.57A6.47,6.47,0,0,1,153.05,27.23Zm10.64,0a3.81,3.81,0,1,0-7.61,0,3.81,3.81,0,1,0,7.61,0Z"/><path class="cls-1" d="M177,20.68v2.85a3.68,3.68,0,0,0-.7-.07c-2.28,0-3.72,1.34-3.72,4v6.22h-3V20.82h2.85v1.87C173.31,21.35,174.87,20.68,177,20.68Z"/><path class="cls-1" d="M190.21,26.12v7.52h-2.84V32.08c-.72,1.1-2.11,1.72-4,1.72-2.93,0-4.78-1.6-4.78-3.84s1.44-3.81,5.33-3.81h3.32V26c0-1.76-1.06-2.79-3.2-2.79a6.36,6.36,0,0,0-3.89,1.27L179,22.26a9,9,0,0,1,5.42-1.58C188.07,20.68,190.21,22.43,190.21,26.12Zm-3,3.51V28.14h-3.1c-2,0-2.59.77-2.59,1.7,0,1.08.91,1.78,2.45,1.78A3.27,3.27,0,0,0,187.21,29.63Z"/><path class="cls-1" d="M215.48,26.29v7.35h-3v-7c0-2.29-1.06-3.39-2.88-3.39-2,0-3.34,1.3-3.34,3.84v6.51h-3v-7c0-2.29-1-3.39-2.88-3.39-2,0-3.34,1.3-3.34,3.84v6.51h-3V20.82h2.86v1.63a5.31,5.31,0,0,1,4.2-1.77,4.8,4.8,0,0,1,4.32,2.13,6,6,0,0,1,4.8-2.13C213.32,20.68,215.48,22.43,215.48,26.29Z"/><path class="cls-1" d="M218.91,16.91a1.82,1.82,0,0,1,1.92-1.8,1.79,1.79,0,0,1,1.92,1.72,1.92,1.92,0,0,1-3.84.08Zm.41,3.91h3V33.64h-3Z"/><path class="cls-1" d="M238.25,28.19H228.2a3.88,3.88,0,0,0,4.15,3.07,4.61,4.61,0,0,0,3.48-1.39l1.61,1.85a6.53,6.53,0,0,1-5.16,2.08c-4.3,0-7.08-2.76-7.08-6.57a6.36,6.36,0,0,1,6.62-6.55,6.25,6.25,0,0,1,6.48,6.62C238.3,27.54,238.28,27.9,238.25,28.19Zm-10.08-2h7.28a3.49,3.49,0,0,0-3.63-3.12A3.54,3.54,0,0,0,228.17,26.2Z"/><path class="cls-1" d="M253.81,26.29v7.35h-3v-7c0-2.29-1.13-3.39-3.05-3.39-2.14,0-3.58,1.3-3.58,3.87v6.48h-3V20.82H244v1.65a5.57,5.57,0,0,1,4.41-1.79C251.53,20.68,253.81,22.43,253.81,26.29Z"/><path class="cls-1" d="M265.32,32.94a4.69,4.69,0,0,1-2.88.86c-2.8,0-4.41-1.48-4.41-4.32V23.31h-2.11V20.92H258V18h3v2.93h3.43v2.39H261v6.1c0,1.25.62,1.92,1.77,1.92a2.68,2.68,0,0,0,1.68-.53Z"/><path class="cls-1" d="M266.31,27.23a6.45,6.45,0,0,1,6.81-6.55c4,0,6.85,2.71,6.85,6.55s-2.86,6.57-6.85,6.57A6.46,6.46,0,0,1,266.31,27.23Zm10.63,0a3.81,3.81,0,1,0-7.61,0,3.81,3.81,0,1,0,7.61,0Z"/><path class="cls-1" d="M118,57H108a3.88,3.88,0,0,0,4.15,3.07,4.61,4.61,0,0,0,3.48-1.39l1.61,1.85A6.51,6.51,0,0,1,112,62.6c-4.3,0-7.08-2.76-7.08-6.57a6.38,6.38,0,0,1,6.62-6.56,6.25,6.25,0,0,1,6.48,6.63C118.06,56.34,118,56.7,118,57Zm-10.09-2h7.28a3.49,3.49,0,0,0-3.63-3.12A3.54,3.54,0,0,0,107.93,55Z"/><path class="cls-1" d="M119.48,61.16l1.15-2.28a8.58,8.58,0,0,0,4.46,1.28c1.9,0,2.69-.53,2.69-1.42,0-2.45-7.92-.14-7.92-5.26,0-2.42,2.19-4,5.64-4a10.13,10.13,0,0,1,4.8,1.11l-1.15,2.28a7,7,0,0,0-3.67-1c-1.83,0-2.69.6-2.69,1.44,0,2.59,7.92.29,7.92,5.3,0,2.4-2.21,4-5.81,4A10.14,10.14,0,0,1,119.48,61.16Z"/><path class="cls-1" d="M146.91,56a6.24,6.24,0,0,1-6.5,6.57,5.28,5.28,0,0,1-4.11-1.72v6.21h-3V49.62h2.86V51.3a5.28,5.28,0,0,1,4.25-1.83A6.24,6.24,0,0,1,146.91,56Zm-3,0a3.81,3.81,0,1,0-3.79,4A3.73,3.73,0,0,0,143.86,56Z"/><path class="cls-1" d="M161.77,57H151.71a3.88,3.88,0,0,0,4.15,3.07,4.61,4.61,0,0,0,3.48-1.39L161,60.52a6.51,6.51,0,0,1-5.16,2.08c-4.3,0-7.08-2.76-7.08-6.57a6.38,6.38,0,0,1,6.62-6.56,6.25,6.25,0,0,1,6.48,6.63C161.81,56.34,161.79,56.7,161.77,57Zm-10.08-2H159a3.68,3.68,0,0,0-7.27,0Z"/><path class="cls-1" d="M163.64,56c0-3.84,2.88-6.56,6.93-6.56a5.79,5.79,0,0,1,5.48,3l-2.31,1.34A3.62,3.62,0,0,0,170.55,52a4,4,0,0,0,0,8,3.63,3.63,0,0,0,3.19-1.78l2.31,1.34a5.84,5.84,0,0,1-5.48,3C166.52,62.6,163.64,59.87,163.64,56Z"/><path class="cls-1" d="M178.23,45.71a1.83,1.83,0,0,1,1.92-1.8,1.79,1.79,0,0,1,1.92,1.72,1.92,1.92,0,0,1-3.84.08Zm.41,3.91h3V62.44h-3Z"/><path class="cls-1" d="M196.3,54.92v7.52h-2.83V60.88c-.72,1.1-2.11,1.72-4,1.72-2.93,0-4.78-1.6-4.78-3.84S186.1,55,190,55h3.31v-.19c0-1.76-1.05-2.79-3.19-2.79a6.36,6.36,0,0,0-3.89,1.27l-1.17-2.18a9,9,0,0,1,5.42-1.59C194.17,49.47,196.3,51.23,196.3,54.92Zm-3,3.51V56.94h-3.09c-2,0-2.6.77-2.6,1.7s.92,1.78,2.45,1.78A3.26,3.26,0,0,0,193.3,58.43Z"/><path class="cls-1" d="M200.14,44.63h3V62.44h-3Z"/><path class="cls-1" d="M206.67,45.71a1.82,1.82,0,0,1,1.92-1.8,1.79,1.79,0,0,1,1.92,1.72,1.92,1.92,0,0,1-3.84.08Zm.41,3.91h3V62.44h-3Z"/><path class="cls-1" d="M224,60v2.4H213v-1.9L220,52H213.1v-2.4h10.73v1.9L216.77,60Z"/><path class="cls-1" d="M237.51,54.92v7.52h-2.83V60.88c-.72,1.1-2.12,1.72-4,1.72-2.93,0-4.78-1.6-4.78-3.84S227.31,55,231.2,55h3.31v-.19c0-1.76-1.06-2.79-3.19-2.79a6.36,6.36,0,0,0-3.89,1.27l-1.18-2.18a9,9,0,0,1,5.43-1.59C235.37,49.47,237.51,51.23,237.51,54.92Zm-3,3.51V56.94h-3.1c-2,0-2.59.77-2.59,1.7s.91,1.78,2.45,1.78A3.27,3.27,0,0,0,234.51,58.43Z"/><path class="cls-1" d="M254,44.63V62.44h-2.88V60.78a5.29,5.29,0,0,1-4.25,1.82A6.23,6.23,0,0,1,240.41,56a6.22,6.22,0,0,1,6.48-6.56A5.27,5.27,0,0,1,251,51.2V44.63Zm-3,11.4a3.82,3.82,0,1,0-3.82,4A3.75,3.75,0,0,0,251.07,56Z"/><path class="cls-1" d="M256.9,56a6.46,6.46,0,0,1,6.82-6.56c4,0,6.84,2.72,6.84,6.56s-2.86,6.57-6.84,6.57A6.47,6.47,0,0,1,256.9,56Zm10.63,0a3.81,3.81,0,1,0-3.81,4A3.73,3.73,0,0,0,267.53,56Z"/><path class="cls-2" d="M64.2,37.3A30.56,30.56,0,1,0,33.64,67.86,30.56,30.56,0,0,0,64.2,37.3Z"/><path class="cls-3" d="M60.62,49.41A29.57,29.57,0,1,0,21.54,64.28,29.56,29.56,0,0,0,60.62,49.41Z"/><path class="cls-1" d="M22.3,52.12v8a.62.62,0,0,0,.64.59h8.15a.59.59,0,0,0,.61-.57V58a.7.7,0,0,1,.66-.47h1.18a.62.62,0,0,0,.45.21l3.66,0h0A1.86,1.86,0,0,0,39.53,56,1.83,1.83,0,0,0,39,54.67a1.87,1.87,0,0,0-1.25-.55V52.51h2.06a1,1,0,0,0,1-1,1,1,0,0,0-.07-.38l-1.71-4.48c0-.5,0-1.66,0-1.81a9.74,9.74,0,0,0-9.73-9.21H29a8.93,8.93,0,0,0-7.42,4.47,9.1,9.1,0,0,0-.23,8.79A17.88,17.88,0,0,1,22.3,52.12Zm15.82,3.41a.67.67,0,0,1,.18.47.65.65,0,0,1-.62.63h0l-3.05-.08,0-1.23h3a.62.62,0,0,1,.44.21Zm-9-18.65h.15a8.48,8.48,0,0,1,8.5,8c0,.11,0,1,0,1.86a.48.48,0,0,0,0,.2l1.64,4.29H37.13a.63.63,0,0,0-.6.65v2.16H34a.61.61,0,0,0-.61.62v.57H31.66a2.45,2.45,0,0,1-2.43-2.47h0v-.72a3.39,3.39,0,0,0,2.66-3.25v-.34a3.36,3.36,0,0,0-1-2.4,3.21,3.21,0,0,0-1.77-1ZM30.06,47a2.13,2.13,0,0,1,.61,1.52v.35a2.15,2.15,0,0,1-2.14,2.11h0A2.14,2.14,0,0,1,27,50.28a2.1,2.1,0,0,1-.61-1.52v-.34a2.14,2.14,0,0,1,2.17-2.11,2.1,2.1,0,0,1,1.5.64Zm-7.47-6.21A7.74,7.74,0,0,1,27.93,37v8.14a3.33,3.33,0,0,0-2.77,3.27v.34A3.37,3.37,0,0,0,28,52.12v.67a3.68,3.68,0,0,0,3.55,3.71,2,2,0,0,0-1.06,1.28.77.77,0,0,0,0,.15v1.52H23.53V52.09s0,0,0-.06a19.43,19.43,0,0,0-1.1-3.61l0-.05a7.85,7.85,0,0,1,.18-7.63Z"/><path class="cls-1" d="M44.78,22.92h2.11a.43.43,0,0,0,0-.86H44.78a.43.43,0,0,0,0,.86Z"/><path class="cls-1" d="M41,22.92H43.4a.43.43,0,0,0,0-.86H41a.43.43,0,1,0,0,.86Z"/><path class="cls-1" d="M49.35,22.06h-.77a.43.43,0,0,0,0,.86h.77a.43.43,0,0,0,0-.86Z"/><path class="cls-1" d="M40.08,25.33h4a.43.43,0,1,0,0-.86h-4a.43.43,0,1,0,0,.86Z"/><path class="cls-1" d="M49.35,24.47H45.6a.43.43,0,0,0,0,.86h3.75a.43.43,0,0,0,0-.86Z"/><path class="cls-1" d="M49.35,26.87h-9.3a.43.43,0,1,0,0,.86h9.3a.43.43,0,0,0,0-.86Z"/><path class="cls-1" d="M50,19.1H31.83A1.83,1.83,0,0,0,30,20.92v9.52a1.87,1.87,0,0,0,1.85,1.86h3.94v1.85a.44.44,0,0,0,.26.39.37.37,0,0,0,.18,0,.41.41,0,0,0,.28-.09l2.72-2.19H50a1.87,1.87,0,0,0,1.85-1.86V20.92A1.84,1.84,0,0,0,50,19.1Zm1,11.34a1,1,0,0,1-1,1h-11a.47.47,0,0,0-.28.09l-2.14,1.73v-1.4a.43.43,0,0,0-.4-.42H31.83a1,1,0,0,1-1-1V20.92a1,1,0,0,1,1-1H50a1,1,0,0,1,1,.95h0Z"/><path class="cls-1" d="M41,29.28H39a.43.43,0,0,0,0,.86h2a.43.43,0,1,0,0-.86Z"/><path class="cls-1" d="M37.58,29.28H32.51a.43.43,0,0,0,0,.86h5.07a.43.43,0,1,0,0-.86Z"/><path class="cls-1" d="M49.35,29.28h-6.9a.43.43,0,1,0,0,.86h6.9a.43.43,0,0,0,0-.86Z"/><path class="cls-1" d="M32.29,27.11l3.11,1.8a.47.47,0,0,0,.43,0l3.11-1.8a.4.4,0,0,0,.22-.37V23.16a.43.43,0,0,0-.22-.38L35.83,21a.42.42,0,0,0-.43,0l-3.11,1.79a.45.45,0,0,0-.22.38v3.58A.42.42,0,0,0,32.29,27.11Zm6-.62L36,27.79V25.2l2.28-1.3Zm-.44-3.33-2.25,1.29L34.89,24l2.25-1.29Zm-2.25-1.3.66.38L34,23.54l-.66-.38Zm-2.67,2,2.22,1.3v2.59l-2.22-1.3Z"/></svg>