<svg id="Capa_1" data-name="Capa 1" xmlns="http://www.w3.org/2000/svg" viewBox="0 0 247 86"><defs><style>.cls-1,.cls-2{fill:none;stroke:#18c65e;stroke-miterlimit:10;}.cls-2{stroke-width:4px;}.cls-3{fill:#fff;}</style></defs><path class="cls-1" d="M67.4,41.3A30.56,30.56,0,1,0,36.84,71.86,30.56,30.56,0,0,0,67.4,41.3Z"/><path class="cls-2" d="M63.82,53.41A29.57,29.57,0,1,0,24.74,68.28,29.57,29.57,0,0,0,63.82,53.41Z"/><path class="cls-3" d="M47.18,38.14a.46.46,0,0,0,.27-.09l2-1.48a11.11,11.11,0,0,0,4.3-7l.6-3.43a.42.42,0,0,0-.23-.47l-6.7-3.58a.45.45,0,0,0-.42,0l-6.7,3.58a.42.42,0,0,0-.23.47l.6,3.4a11.14,11.14,0,0,0,4.24,7l2,1.54a.44.44,0,0,0,.27.09ZM41.52,29.4,41,26.32,47.18,23l6.21,3.32-.55,3.1a10.28,10.28,0,0,1-4,6.44l-1.7,1.27L45.42,35.8A10.27,10.27,0,0,1,41.52,29.4Z"/><path class="cls-3" d="M48.89,34.9a8.27,8.27,0,0,0,3.2-5.21l.45-2.51a.45.45,0,0,0-.23-.47l-2.24-1.19-.42.79,2,1-.39,2.19a7.38,7.38,0,0,1-2.85,4.64l-1.18.89L46,34.14a7.46,7.46,0,0,1-2.82-4.62l-.38-2.17,2-1-.42-.79-2.24,1.19a.45.45,0,0,0-.23.47l.44,2.49a8.33,8.33,0,0,0,3.16,5.18L46.91,36a.44.44,0,0,0,.27.09.46.46,0,0,0,.27-.09Z"/><path class="cls-3" d="M47.18,25l1.58.84.42-.79-1.79-.95a.45.45,0,0,0-.42,0L45.18,25l.42.79Z"/><path class="cls-3" d="M46.72,31.88h0a.45.45,0,0,0,.34-.15l3.13-3.57-.68-.59-2.76,3.16-1-1.35-.72.54,1.35,1.78a.42.42,0,0,0,.34.18Z"/><path class="cls-3" d="M46.73,26.52h.9v.89h-.9Z"/><path class="cls-3" d="M46.73,32.78h.9v.89h-.9Z"/><path class="cls-3" d="M41.26,44a6.49,6.49,0,0,0-1.72.23l-2.87-7.31h2.94a.87.87,0,0,1,.82.59.87.87,0,0,1-.82,1.16h-.22a.64.64,0,0,0-.64.64.64.64,0,0,0,.64.64h.22a2.15,2.15,0,0,0,2-2.86,2.15,2.15,0,0,0-2-1.45H35.73a.61.61,0,0,0-.53.28.64.64,0,0,0-.07.6l1.74,4.44h-6.4L29.67,39a.64.64,0,0,0-.6-.4H25.83a1.79,1.79,0,0,0-1.48.78,1.81,1.81,0,0,0-.19,1.66,1.79,1.79,0,0,0,1.67,1.14h2.65l-1.34,2.31A6.3,6.3,0,0,0,24.53,44a6.39,6.39,0,0,0-6.34,5.73H16.81a.64.64,0,0,0-.64.64.64.64,0,0,0,.64.64h1.38a6.39,6.39,0,0,0,2.51,4.44H17.84a.65.65,0,0,0,0,1.29h6.69A6.37,6.37,0,0,0,30.87,51H32a2.12,2.12,0,0,0,2,1.48,2.07,2.07,0,0,0,1.1-.31,6.38,6.38,0,0,0,2.27,3.27H34.05a.65.65,0,0,0,0,1.29h7.21a6.37,6.37,0,1,0,0-12.74Zm-15.43-3a.5.5,0,0,1-.47-.32.52.52,0,0,1,.05-.47.51.51,0,0,1,.42-.22h2.8l.4,1Zm-1.3,14.49a5.08,5.08,0,0,1,0-10.16,5.17,5.17,0,0,1,2,.39L24,50a.61.61,0,0,0,0,.64.62.62,0,0,0,.55.32h2.54a2.63,2.63,0,0,1-2.54,2,.64.64,0,0,0-.64.64.64.64,0,0,0,.64.64A3.9,3.9,0,0,0,28.38,51h1.2A5.1,5.1,0,0,1,24.53,55.41Zm1.12-5.72,2-3.4a5.07,5.07,0,0,1,2,3.4Zm5.22,0a6.38,6.38,0,0,0-2.61-4.53l1.51-2.62,3.13,7.15Zm3.18,1.47a.84.84,0,0,1-.53-.19h.36a.65.65,0,0,0,.54-.29.63.63,0,0,0,0-.61l-.24-.56a.85.85,0,0,1,.66.82A.84.84,0,0,1,34.05,51.16Zm0-2.95a.68.68,0,0,0-.35.1L31,42.21h6.34l1,2.46a6.38,6.38,0,0,0-3.19,3.85A2.07,2.07,0,0,0,34.05,48.21Zm7.21,7.2a5.08,5.08,0,0,1-2.44-9.54l1.84,4.69a.63.63,0,0,0,.6.41.59.59,0,0,0,.23,0,.65.65,0,0,0,.37-.84L40,45.4a5.16,5.16,0,0,1,1.25-.16,5.09,5.09,0,0,1,0,10.17Z"/><path class="cls-3" d="M124.43,34.42c0,2.88-2.26,4.56-6.58,4.56H109.5V22.18h7.87c4,0,6.19,1.7,6.19,4.37a4,4,0,0,1-2.16,3.7A4.13,4.13,0,0,1,124.43,34.42Zm-11.81-9.79v4.63H117c2.16,0,3.39-.77,3.39-2.3s-1.23-2.33-3.39-2.33Zm8.66,9.48c0-1.68-1.27-2.42-3.62-2.42h-5v4.84h5C120,36.53,121.28,35.79,121.28,34.11Z"/><path class="cls-3" d="M127.06,22.25a1.83,1.83,0,0,1,1.92-1.8,1.79,1.79,0,0,1,1.92,1.73,1.92,1.92,0,0,1-3.84.07Zm.41,3.92h3V39h-3Z"/><path class="cls-3" d="M133.35,32.57c0-3.84,2.88-6.55,6.94-6.55a5.76,5.76,0,0,1,5.47,3l-2.3,1.34a3.64,3.64,0,0,0-3.2-1.77,3.75,3.75,0,0,0-3.88,4,3.75,3.75,0,0,0,3.88,4,3.64,3.64,0,0,0,3.2-1.77l2.3,1.34a5.83,5.83,0,0,1-5.47,3C136.23,39.15,133.35,36.41,133.35,32.57Z"/><path class="cls-3" d="M147.94,22.25a1.83,1.83,0,0,1,1.92-1.8,1.79,1.79,0,0,1,1.92,1.73,1.92,1.92,0,0,1-3.84.07Zm.41,3.92h3V39h-3Z"/><path class="cls-3" d="M154.23,32.57c0-3.84,2.88-6.55,6.94-6.55a5.76,5.76,0,0,1,5.47,3l-2.3,1.34a3.64,3.64,0,0,0-3.2-1.77,3.76,3.76,0,0,0-3.89,4,3.75,3.75,0,0,0,3.89,4,3.64,3.64,0,0,0,3.2-1.77l2.3,1.34a5.83,5.83,0,0,1-5.47,3C157.11,39.15,154.23,36.41,154.23,32.57Z"/><path class="cls-3" d="M169.11,21.17h3V39h-3Z"/><path class="cls-3" d="M188.05,33.53H178a3.88,3.88,0,0,0,4.15,3.08,4.58,4.58,0,0,0,3.48-1.4l1.61,1.85a6.49,6.49,0,0,1-5.16,2.09c-4.3,0-7.08-2.76-7.08-6.58A6.38,6.38,0,0,1,181.61,26a6.26,6.26,0,0,1,6.49,6.63C188.1,32.89,188.07,33.25,188.05,33.53Zm-10.08-2h7.27a3.49,3.49,0,0,0-3.63-3.12A3.53,3.53,0,0,0,178,31.54Z"/><path class="cls-3" d="M198.68,38.29a4.75,4.75,0,0,1-2.88.86c-2.81,0-4.42-1.49-4.42-4.32V28.66h-2.11v-2.4h2.11V23.33h3v2.93h3.43v2.4h-3.43v6.1c0,1.25.63,1.92,1.78,1.92a2.72,2.72,0,0,0,1.68-.53Z"/><path class="cls-3" d="M211.88,31.47V39h-2.83V37.42c-.72,1.11-2.12,1.73-4,1.73-2.92,0-4.77-1.61-4.77-3.84s1.44-3.82,5.33-3.82h3.31V31.3c0-1.75-1.06-2.78-3.19-2.78a6.36,6.36,0,0,0-3.89,1.27l-1.18-2.18A9,9,0,0,1,206.05,26C209.74,26,211.88,27.77,211.88,31.47Zm-3,3.5V33.49h-3.1c-2,0-2.59.76-2.59,1.7S204.1,37,205.64,37A3.27,3.27,0,0,0,208.88,35Z"/><path class="cls-3" d="M214.25,37.71l1.16-2.28a8.62,8.62,0,0,0,4.46,1.27c1.9,0,2.69-.53,2.69-1.41,0-2.45-7.92-.15-7.92-5.26,0-2.42,2.18-4,5.64-4a10.28,10.28,0,0,1,4.8,1.1l-1.15,2.29a7,7,0,0,0-3.68-1c-1.82,0-2.68.6-2.68,1.44,0,2.59,7.92.28,7.92,5.3,0,2.4-2.21,4-5.81,4A10.18,10.18,0,0,1,214.25,37.71Z"/><path class="cls-3" d="M93.13,59.38c0-5,3.84-8.64,9-8.64a8.5,8.5,0,0,1,6.65,2.81l-2,1.9a5.87,5.87,0,0,0-4.49-2,5.91,5.91,0,1,0,0,11.81,5.83,5.83,0,0,0,4.49-2l2,1.92A8.53,8.53,0,0,1,102.1,68C97,68,93.13,64.4,93.13,59.38Z"/><path class="cls-3" d="M123,62.33H113a3.88,3.88,0,0,0,4.15,3.08,4.58,4.58,0,0,0,3.48-1.4l1.61,1.85A6.49,6.49,0,0,1,117,68c-4.29,0-7.08-2.76-7.08-6.58a6.38,6.38,0,0,1,6.63-6.55,6.26,6.26,0,0,1,6.48,6.63C123.06,61.69,123,62.05,123,62.33Zm-10.08-2h7.27a3.49,3.49,0,0,0-3.62-3.12A3.54,3.54,0,0,0,112.93,60.34Z"/><path class="cls-3" d="M133.35,54.82v2.86a3.58,3.58,0,0,0-.69-.07c-2.28,0-3.72,1.34-3.72,4v6.21h-3V55h2.85v1.88C129.66,55.49,131.22,54.82,133.35,54.82Z"/><path class="cls-3" d="M144.08,67.09a4.75,4.75,0,0,1-2.88.86c-2.81,0-4.42-1.49-4.42-4.32V57.46h-2.11v-2.4h2.11V52.13h3v2.93h3.44v2.4h-3.44v6.1c0,1.25.63,1.92,1.78,1.92a2.72,2.72,0,0,0,1.68-.53Z"/><path class="cls-3" d="M146.14,51.05a1.83,1.83,0,0,1,1.92-1.8A1.79,1.79,0,0,1,150,51a1.92,1.92,0,0,1-3.84.07Zm.41,3.91h3V67.78h-3Z"/><path class="cls-3" d="M158.48,49.8a4.79,4.79,0,0,1,2.71.7l-.84,2.26a3,3,0,0,0-1.65-.53c-1.25,0-1.9.69-1.9,2.06v.77h3.53v2.4H156.9V67.78h-3V57.46h-2.12v-2.4h2.12v-.81C153.9,51.56,155.5,49.8,158.48,49.8Zm5.38,1.25a1.82,1.82,0,0,1,1.92-1.8A1.79,1.79,0,0,1,167.7,51a1.84,1.84,0,0,1-1.92,1.87A1.82,1.82,0,0,1,163.86,51.05Zm.4,3.91h3V67.78h-3Z"/><path class="cls-3" d="M170.14,61.37c0-3.84,2.88-6.55,6.94-6.55a5.75,5.75,0,0,1,5.47,3l-2.3,1.34a3.63,3.63,0,0,0-3.19-1.77,4,4,0,0,0,0,8,3.63,3.63,0,0,0,3.19-1.77l2.3,1.34a5.82,5.82,0,0,1-5.47,3C173,68,170.14,65.21,170.14,61.37Z"/><path class="cls-3" d="M195.87,60.27v7.51H193V66.22c-.72,1.11-2.11,1.73-4,1.73-2.93,0-4.78-1.61-4.78-3.84s1.44-3.82,5.33-3.82h3.31V60.1c0-1.75-1.05-2.78-3.19-2.78a6.36,6.36,0,0,0-3.89,1.27l-1.18-2.18A9,9,0,0,1,190,54.82C193.74,54.82,195.87,56.57,195.87,60.27Zm-3,3.5V62.29h-3.09c-2,0-2.6.76-2.6,1.7s.92,1.78,2.45,1.78A3.26,3.26,0,0,0,192.87,63.77Z"/><path class="cls-3" d="M212.38,50V67.78H209.5V66.13A5.28,5.28,0,0,1,205.25,68a6.24,6.24,0,0,1-6.48-6.58,6.22,6.22,0,0,1,6.48-6.55,5.22,5.22,0,0,1,4.13,1.73V50Zm-2.95,11.4a3.82,3.82,0,1,0-3.82,4A3.74,3.74,0,0,0,209.43,61.37Z"/><path class="cls-3" d="M227.05,60.27v7.51h-2.83V66.22c-.72,1.11-2.12,1.73-4,1.73-2.93,0-4.77-1.61-4.77-3.84s1.44-3.82,5.33-3.82h3.31V60.1c0-1.75-1.06-2.78-3.2-2.78A6.35,6.35,0,0,0,217,58.59l-1.18-2.18a9,9,0,0,1,5.43-1.59C224.91,54.82,227.05,56.57,227.05,60.27Zm-3,3.5V62.29H221c-2,0-2.59.76-2.59,1.7s.91,1.78,2.45,1.78A3.28,3.28,0,0,0,224.05,63.77Z"/><path class="cls-3" d="M229.42,66.51l1.15-2.28A8.68,8.68,0,0,0,235,65.5c1.89,0,2.69-.53,2.69-1.41,0-2.45-7.92-.15-7.92-5.26,0-2.42,2.18-4,5.64-4a10.31,10.31,0,0,1,4.8,1.1l-1.16,2.29a7,7,0,0,0-3.67-1c-1.82,0-2.69.6-2.69,1.44,0,2.59,7.92.28,7.92,5.3,0,2.4-2.2,4-5.8,4A10.15,10.15,0,0,1,229.42,66.51Z"/></svg>