<svg id="Capa_1" data-name="Capa 1" xmlns="http://www.w3.org/2000/svg" viewBox="0 0 248 83"><defs><style>.cls-1{fill:#fff;}.cls-2,.cls-3{fill:none;stroke:#18c65e;stroke-miterlimit:10;}.cls-3{stroke-width:4px;}</style></defs><path class="cls-1" d="M108,29.24h3v6.7a10.67,10.67,0,0,1-6.58,2.13c-5.21,0-9-3.62-9-8.64s3.84-8.64,9.1-8.64a8.7,8.7,0,0,1,6.75,2.74l-2,1.92a6.24,6.24,0,0,0-4.64-1.92,5.74,5.74,0,0,0-6.09,5.9,5.78,5.78,0,0,0,6.07,5.91,6.75,6.75,0,0,0,3.46-.87Z"/><path class="cls-1" d="M125.46,30.32v7.51h-2.83V36.27c-.72,1.11-2.11,1.73-4,1.73-2.93,0-4.78-1.61-4.78-3.84s1.44-3.82,5.33-3.82h3.31v-.19c0-1.75-1-2.78-3.19-2.78a6.36,6.36,0,0,0-3.89,1.27l-1.17-2.18a9,9,0,0,1,5.42-1.59C123.33,24.87,125.46,26.62,125.46,30.32Zm-3,3.5V32.34h-3.09c-2,0-2.6.76-2.6,1.7s.92,1.78,2.45,1.78A3.26,3.26,0,0,0,122.46,33.82Z"/><path class="cls-1" d="M136.72,24.87v2.86a3.68,3.68,0,0,0-.7-.07c-2.28,0-3.72,1.34-3.72,4v6.21h-3V25h2.86v1.88C133,25.54,134.58,24.87,136.72,24.87Z"/><path class="cls-1" d="M149.92,30.32v7.51h-2.83V36.27c-.72,1.11-2.12,1.73-4,1.73-2.92,0-4.77-1.61-4.77-3.84s1.44-3.82,5.33-3.82h3.31v-.19c0-1.75-1.06-2.78-3.19-2.78a6.36,6.36,0,0,0-3.89,1.27l-1.18-2.18a9,9,0,0,1,5.43-1.59C147.78,24.87,149.92,26.62,149.92,30.32Zm-3,3.5V32.34h-3.1c-2,0-2.59.76-2.59,1.7s.91,1.78,2.45,1.78A3.28,3.28,0,0,0,146.92,33.82Z"/><path class="cls-1" d="M166.38,30.49v7.34h-3v-7c0-2.28-1.13-3.38-3-3.38-2.13,0-3.57,1.29-3.57,3.86v6.48h-3V25h2.85v1.66a5.61,5.61,0,0,1,4.42-1.8C164.1,24.87,166.38,26.62,166.38,30.49Z"/><path class="cls-1" d="M177.9,37.14A4.75,4.75,0,0,1,175,38c-2.81,0-4.41-1.49-4.41-4.32V27.51h-2.12v-2.4h2.12V22.18h3v2.93H177v2.4h-3.43v6.1c0,1.25.62,1.92,1.77,1.92a2.68,2.68,0,0,0,1.68-.53Z"/><path class="cls-1" d="M183.11,20h3.53l-4.18,3.28h-2.59Zm-2.74,5h3V37.83h-3Z"/><path class="cls-1" d="M198,30.32v7.51h-2.83V36.27c-.72,1.11-2.12,1.73-4,1.73-2.92,0-4.77-1.61-4.77-3.84s1.44-3.82,5.33-3.82H195v-.19c0-1.75-1.06-2.78-3.19-2.78A6.36,6.36,0,0,0,188,28.64l-1.18-2.18a9,9,0,0,1,5.43-1.59C195.9,24.87,198,26.62,198,30.32Zm-3,3.5V32.34h-3.1c-2,0-2.59.76-2.59,1.7s.91,1.78,2.45,1.78A3.28,3.28,0,0,0,195,33.82Z"/><path class="cls-1" d="M221.05,20V37.83h-2.88V36.18A5.27,5.27,0,0,1,213.93,38a6.24,6.24,0,0,1-6.49-6.58,6.22,6.22,0,0,1,6.49-6.55,5.22,5.22,0,0,1,4.12,1.73V20Zm-3,11.4a3.82,3.82,0,1,0-7.63,0,3.82,3.82,0,1,0,7.63,0Z"/><path class="cls-1" d="M237,32.38H226.93a3.88,3.88,0,0,0,4.15,3.08,4.6,4.6,0,0,0,3.49-1.4l1.6,1.85A6.49,6.49,0,0,1,231,38c-4.29,0-7.08-2.76-7.08-6.58a6.38,6.38,0,0,1,6.63-6.55A6.26,6.26,0,0,1,237,31.5C237,31.74,237,32.1,237,32.38Zm-10.08-2h7.27a3.48,3.48,0,0,0-3.62-3.12A3.54,3.54,0,0,0,226.91,30.39Z"/><path class="cls-1" d="M87.18,60.22c0-3.84,2.88-6.55,6.94-6.55a5.76,5.76,0,0,1,5.47,3L97.29,58a3.64,3.64,0,0,0-3.2-1.77,4,4,0,0,0,0,8,3.64,3.64,0,0,0,3.2-1.77l2.3,1.34a5.83,5.83,0,0,1-5.47,3C90.06,66.8,87.18,64.06,87.18,60.22Z"/><path class="cls-1" d="M100.93,60.22a6.45,6.45,0,0,1,6.82-6.55c4,0,6.84,2.71,6.84,6.55a6.83,6.83,0,0,1-13.66,0Zm10.64,0a3.81,3.81,0,1,0-3.82,4A3.74,3.74,0,0,0,111.57,60.22Z"/><path class="cls-1" d="M130.09,59.29v7.34h-3v-7c0-2.28-1.12-3.38-3-3.38-2.14,0-3.58,1.29-3.58,3.86v6.48h-3V53.82h2.86v1.65a5.58,5.58,0,0,1,4.41-1.8C127.81,53.67,130.09,55.42,130.09,59.29Z"/><path class="cls-1" d="M137.22,53.14v.77h3.53v2.4h-3.43V66.63h-3V56.31h-2.11v-2.4h2.11v-.82c0-2.68,1.61-4.43,4.58-4.43a4.79,4.79,0,0,1,2.71.69l-.84,2.26a3,3,0,0,0-1.65-.53C137.87,51.08,137.22,51.77,137.22,53.14Z"/><path class="cls-1" d="M141.52,60.22a6.45,6.45,0,0,1,6.81-6.55c4,0,6.84,2.71,6.84,6.55a6.83,6.83,0,0,1-13.65,0Zm10.63,0a3.81,3.81,0,1,0-3.82,4A3.73,3.73,0,0,0,152.15,60.22Z"/><path class="cls-1" d="M165.47,53.67v2.86a3.6,3.6,0,0,0-.7-.07c-2.28,0-3.72,1.34-3.72,4v6.21h-3V53.82h2.86v1.87C161.77,54.34,163.33,53.67,165.47,53.67Z"/><path class="cls-1" d="M189.45,59.29v7.34h-3v-7c0-2.28-1.06-3.38-2.88-3.38-2,0-3.34,1.29-3.34,3.84v6.5h-3v-7c0-2.28-1.06-3.38-2.88-3.38-2,0-3.34,1.29-3.34,3.84v6.5h-3V53.82h2.86v1.63a5.32,5.32,0,0,1,4.2-1.78,4.81,4.81,0,0,1,4.32,2.14,6,6,0,0,1,4.8-2.14C187.29,53.67,189.45,55.42,189.45,59.29Z"/><path class="cls-1" d="M192.88,49.9a1.83,1.83,0,0,1,1.92-1.8,1.79,1.79,0,0,1,1.92,1.73,1.92,1.92,0,0,1-3.84.07Zm.41,3.92h3V66.63h-3Z"/><path class="cls-1" d="M212.77,48.82V66.63h-2.88V65a5.27,5.27,0,0,1-4.24,1.82,6.24,6.24,0,0,1-6.49-6.58,6.23,6.23,0,0,1,6.49-6.55,5.22,5.22,0,0,1,4.12,1.73V48.82Zm-3,11.4a3.82,3.82,0,1,0-3.81,4A3.74,3.74,0,0,0,209.82,60.22Z"/><path class="cls-1" d="M227.44,59.12v7.51h-2.83V65.07c-.72,1.11-2.12,1.73-4,1.73-2.93,0-4.77-1.61-4.77-3.84s1.44-3.82,5.33-3.82h3.31V59c0-1.75-1.06-2.78-3.2-2.78a6.33,6.33,0,0,0-3.88,1.27l-1.18-2.19a9.06,9.06,0,0,1,5.43-1.58C225.3,53.67,227.44,55.42,227.44,59.12Zm-3,3.5V61.14h-3.1c-2,0-2.59.76-2.59,1.7s.91,1.78,2.45,1.78A3.28,3.28,0,0,0,224.44,62.62Z"/><path class="cls-1" d="M244,48.82V66.63h-2.88V65a5.3,5.3,0,0,1-4.25,1.82,6.24,6.24,0,0,1-6.48-6.58,6.22,6.22,0,0,1,6.48-6.55A5.24,5.24,0,0,1,241,55.4V48.82ZM241,60.22a3.82,3.82,0,1,0-3.82,4A3.75,3.75,0,0,0,241,60.22Z"/><path class="cls-2" d="M66.84,41.5A30.56,30.56,0,1,0,36.28,72.06,30.56,30.56,0,0,0,66.84,41.5Z"/><path class="cls-3" d="M63.26,53.6A29.56,29.56,0,1,0,24.18,68.48,29.57,29.57,0,0,0,63.26,53.6Z"/><path class="cls-1" d="M36,45.64a9.31,9.31,0,1,0-9.31-9.31A9.33,9.33,0,0,0,36,45.64Zm0-17.06a7.75,7.75,0,1,1-7.75,7.75A7.76,7.76,0,0,1,36,28.58Z"/><path class="cls-1" d="M23.14,34.09a4.14,4.14,0,0,0-.9,2.24,4.11,4.11,0,0,0,.9,2.23,4.17,4.17,0,0,1,.57,1.07,4,4,0,0,1,0,1.26,4.12,4.12,0,0,0,.34,2.33A4.11,4.11,0,0,0,26,44.69a4.5,4.5,0,0,1,1.06.65,4.3,4.3,0,0,1,.65,1.06,4.14,4.14,0,0,0,1.46,1.87l.39.18V61.71a.79.79,0,0,0,1.19.67L36,59.15l5.31,3.23a.87.87,0,0,0,.41.11.75.75,0,0,0,.38-.1.78.78,0,0,0,.4-.68V52.52a.78.78,0,0,0-1.56,0v7.81l-1.56-.95V48.62a5,5,0,0,1,1.18,0l.38,0v.53a.78.78,0,1,0,1.56,0v-.7l.39-.18a4.16,4.16,0,0,0,1.47-1.87A4.3,4.3,0,0,1,45,45.34a4.42,4.42,0,0,1,1.05-.65A4.13,4.13,0,0,0,48,43.22a4.11,4.11,0,0,0,.33-2.33,4.27,4.27,0,0,1,0-1.26,4.17,4.17,0,0,1,.57-1.07,4.11,4.11,0,0,0,.9-2.23,4.14,4.14,0,0,0-.9-2.24A4,4,0,0,1,48.34,33a4.32,4.32,0,0,1,0-1.27A4.14,4.14,0,0,0,48,29.43,4.11,4.11,0,0,0,46.09,28,4.42,4.42,0,0,1,45,27.32a4.3,4.3,0,0,1-.65-1.06,4.11,4.11,0,0,0-1.47-1.87,4,4,0,0,0-2.33-.33,4.64,4.64,0,0,1-1.26,0,4.59,4.59,0,0,1-1.07-.58,4.11,4.11,0,0,0-2.23-.9,4.14,4.14,0,0,0-2.24.9,4.55,4.55,0,0,1-1.06.58,4.7,4.7,0,0,1-1.27,0,4,4,0,0,0-2.33.33,4.09,4.09,0,0,0-1.46,1.87A4.3,4.3,0,0,1,27,27.32,4.5,4.5,0,0,1,26,28a4.09,4.09,0,0,0-1.87,1.46,4.14,4.14,0,0,0-.34,2.33,4,4,0,0,1,0,1.27A4,4,0,0,1,23.14,34.09Zm8,14.53.37,0a5.13,5.13,0,0,1,1.19,0V59.38l-1.56.95Zm4.53,9-1.41.85v-9a2.94,2.94,0,0,0,3.64,0v9l-1.42-.85A.79.79,0,0,0,35.62,57.58ZM24.44,35a5.34,5.34,0,0,0,.78-1.52,5.44,5.44,0,0,0,.09-1.75,3,3,0,0,1,.13-1.46,2.94,2.94,0,0,1,1.22-.86,5.28,5.28,0,0,0,1.46-.94A5.52,5.52,0,0,0,29.06,27a3.1,3.1,0,0,1,.85-1.22,3,3,0,0,1,1.47-.13,5.17,5.17,0,0,0,1.75-.09,5.34,5.34,0,0,0,1.52-.78A3,3,0,0,1,36,24.1a3,3,0,0,1,1.38.64,5.28,5.28,0,0,0,1.51.78,5.22,5.22,0,0,0,1.76.09,3,3,0,0,1,1.46.13A2.91,2.91,0,0,1,43,27a5.52,5.52,0,0,0,.94,1.46,5.28,5.28,0,0,0,1.46.94,2.94,2.94,0,0,1,1.22.86,3,3,0,0,1,.13,1.46,5.74,5.74,0,0,0,.09,1.75A5.34,5.34,0,0,0,47.61,35a3,3,0,0,1,.64,1.38,3,3,0,0,1-.64,1.38,5.28,5.28,0,0,0-.78,1.51A5.81,5.81,0,0,0,46.74,41a3,3,0,0,1-.13,1.46,2.85,2.85,0,0,1-1.22.85,5.55,5.55,0,0,0-1.46,1A5.36,5.36,0,0,0,43,45.7a3,3,0,0,1-.85,1.22,2.87,2.87,0,0,1-1.46.12,5.79,5.79,0,0,0-1.76.09,3.77,3.77,0,0,0-.66.26h0a8.94,8.94,0,0,0-.84.51,3,3,0,0,1-1.38.64,3,3,0,0,1-1.38-.64,8,8,0,0,0-.85-.51h0a3.77,3.77,0,0,0-.66-.26,3.94,3.94,0,0,0-1-.11l-.73,0a2.9,2.9,0,0,1-1.47-.12,3.18,3.18,0,0,1-.85-1.22,5.36,5.36,0,0,0-.94-1.46,5.55,5.55,0,0,0-1.46-1,2.85,2.85,0,0,1-1.22-.85A3,3,0,0,1,25.31,41a5.51,5.51,0,0,0-.09-1.76,5.28,5.28,0,0,0-.78-1.51,3,3,0,0,1-.64-1.38A3,3,0,0,1,24.44,35Z"/><path class="cls-1" d="M31.06,36.83l3.7,3a.83.83,0,0,0,.49.17.77.77,0,0,0,.58-.26L40.91,34a.78.78,0,1,0-1.16-1l-4.59,5.15L32,35.61a.78.78,0,0,0-1.1.12A.79.79,0,0,0,31.06,36.83Z"/></svg>