<svg id="Capa_1" data-name="Capa 1" xmlns="http://www.w3.org/2000/svg" viewBox="0 0 269 78"><defs><style>.cls-1{fill:#fff;}.cls-2,.cls-3{fill:none;stroke:#18c65e;stroke-miterlimit:10;}.cls-3{stroke-width:4px;}</style></defs><path class="cls-1" d="M121.25,16.83l-7.32,16.81h-3.07l-7.35-16.81h3.39l5.59,13,5.64-13Z"/><path class="cls-1" d="M133.78,28.19H123.72a3.88,3.88,0,0,0,4.15,3.07,4.61,4.61,0,0,0,3.48-1.39L133,31.72a6.51,6.51,0,0,1-5.16,2.08c-4.29,0-7.08-2.76-7.08-6.57a6.37,6.37,0,0,1,6.63-6.55,6.25,6.25,0,0,1,6.48,6.62C133.83,27.54,133.8,27.9,133.78,28.19Zm-10.08-2H131a3.49,3.49,0,0,0-3.62-3.12A3.53,3.53,0,0,0,123.7,26.2Z"/><path class="cls-1" d="M149.33,26.29v7.35h-3v-7c0-2.29-1.13-3.39-3.05-3.39-2.13,0-3.57,1.3-3.57,3.87v6.48h-3V20.82h2.85v1.65A5.61,5.61,0,0,1,144,20.68C147.05,20.68,149.33,22.43,149.33,26.29Z"/><path class="cls-1" d="M165.82,15.83V33.64h-2.88V32a5.27,5.27,0,0,1-4.25,1.82,6.23,6.23,0,0,1-6.48-6.57,6.21,6.21,0,0,1,6.48-6.55,5.26,5.26,0,0,1,4.13,1.72V15.83Zm-2.95,11.4a3.82,3.82,0,1,0-7.64,0,3.82,3.82,0,1,0,7.64,0Z"/><path class="cls-1" d="M181.75,28.19H171.7a3.88,3.88,0,0,0,4.15,3.07,4.61,4.61,0,0,0,3.48-1.39l1.61,1.85a6.51,6.51,0,0,1-5.16,2.08c-4.3,0-7.08-2.76-7.08-6.57a6.37,6.37,0,0,1,6.62-6.55,6.24,6.24,0,0,1,6.48,6.62C181.8,27.54,181.78,27.9,181.75,28.19Zm-10.08-2H179a3.49,3.49,0,0,0-3.63-3.12A3.54,3.54,0,0,0,171.67,26.2Z"/><path class="cls-1" d="M203.31,28.19H193.25a3.88,3.88,0,0,0,4.15,3.07,4.61,4.61,0,0,0,3.48-1.39l1.61,1.85a6.51,6.51,0,0,1-5.16,2.08c-4.3,0-7.08-2.76-7.08-6.57a6.37,6.37,0,0,1,6.62-6.55,6.24,6.24,0,0,1,6.48,6.62C203.35,27.54,203.33,27.9,203.31,28.19Zm-10.08-2h7.27a3.68,3.68,0,0,0-7.27,0Z"/><path class="cls-1" d="M218.86,26.29v7.35h-3v-7c0-2.29-1.13-3.39-3.05-3.39-2.14,0-3.58,1.3-3.58,3.87v6.48h-3V20.82h2.86v1.65a5.58,5.58,0,0,1,4.42-1.79C216.58,20.68,218.86,22.43,218.86,26.29Z"/><path class="cls-1" d="M240.31,28.6c0,2.83-2.13,5.28-6.65,5.28a10.52,10.52,0,0,1-6.31-2l1.35-2.42a7.81,7.81,0,0,0,4.92,1.65c2.23,0,3.55-1,3.55-2.54s-1.11-2.5-3.65-2.5H232V24l3.82-4.54h-7.63V16.83h11.45v2.09l-4.08,4.85C238.71,24.18,240.31,26.08,240.31,28.6Z"/><path class="cls-1" d="M84.22,61.16l1.15-2.28a8.58,8.58,0,0,0,4.46,1.28c1.9,0,2.69-.53,2.69-1.42,0-2.45-7.92-.14-7.92-5.26,0-2.42,2.19-4,5.64-4A10.13,10.13,0,0,1,95,50.58l-1.15,2.28a7,7,0,0,0-3.67-1c-1.83,0-2.69.6-2.69,1.44,0,2.59,7.92.29,7.92,5.3,0,2.4-2.21,4-5.81,4A10.14,10.14,0,0,1,84.22,61.16Z"/><path class="cls-1" d="M110,57H100a3.88,3.88,0,0,0,4.15,3.07,4.61,4.61,0,0,0,3.48-1.39l1.61,1.85a6.53,6.53,0,0,1-5.16,2.08C99.77,62.6,97,59.84,97,56a6.37,6.37,0,0,1,6.62-6.56,6.26,6.26,0,0,1,6.48,6.63C110.09,56.34,110.07,56.7,110,57ZM100,55h7.28a3.49,3.49,0,0,0-3.63-3.12A3.54,3.54,0,0,0,100,55Z"/><path class="cls-1" d="M125.6,55.09v7.35h-3v-7c0-2.27-1.12-3.38-3-3.38-2.14,0-3.58,1.3-3.58,3.87v6.48h-3V49.62h2.86v1.66a5.55,5.55,0,0,1,4.41-1.81C123.31,49.47,125.6,51.23,125.6,55.09Z"/><path class="cls-1" d="M128.47,56c0-3.84,2.88-6.56,6.94-6.56a5.77,5.77,0,0,1,5.47,3l-2.3,1.34A3.63,3.63,0,0,0,135.39,52a4,4,0,0,0,0,8,3.64,3.64,0,0,0,3.19-1.78l2.3,1.34a5.82,5.82,0,0,1-5.47,3C131.35,62.6,128.47,59.87,128.47,56Z"/><path class="cls-1" d="M143.07,45.71a1.82,1.82,0,0,1,1.92-1.8,1.79,1.79,0,0,1,1.92,1.72A1.85,1.85,0,0,1,145,47.51,1.83,1.83,0,0,1,143.07,45.71Zm.4,3.91h3V62.44h-3Z"/><path class="cls-1" d="M150.41,44.63h3V62.44h-3Z"/><path class="cls-1" d="M157.35,44.63h3V62.44h-3Z"/><path class="cls-1" d="M163.22,56A6.46,6.46,0,0,1,170,49.47c4,0,6.84,2.72,6.84,6.56S174,62.6,170,62.6A6.47,6.47,0,0,1,163.22,56Zm10.64,0a3.81,3.81,0,1,0-7.61,0,3.81,3.81,0,1,0,7.61,0Z"/><path class="cls-1" d="M178.3,61.16l1.15-2.28a8.56,8.56,0,0,0,4.46,1.28c1.9,0,2.69-.53,2.69-1.42,0-2.45-7.92-.14-7.92-5.26,0-2.42,2.18-4,5.64-4a10.13,10.13,0,0,1,4.8,1.11L188,52.86a7,7,0,0,0-3.67-1c-1.83,0-2.69.6-2.69,1.44,0,2.59,7.92.29,7.92,5.3,0,2.4-2.21,4-5.81,4A10.12,10.12,0,0,1,178.3,61.16Z"/><path class="cls-1" d="M212.35,56a6.24,6.24,0,0,1-6.5,6.57,5.31,5.31,0,0,1-4.11-1.72v6.21h-3V49.62h2.86V51.3a5.28,5.28,0,0,1,4.25-1.83A6.24,6.24,0,0,1,212.35,56Zm-3,0a3.81,3.81,0,1,0-3.8,4A3.73,3.73,0,0,0,209.31,56Z"/><path class="cls-1" d="M225.77,54.92v7.52h-2.83V60.88c-.72,1.1-2.12,1.72-4,1.72-2.92,0-4.77-1.6-4.77-3.84S215.57,55,219.46,55h3.31v-.19c0-1.76-1.06-2.79-3.19-2.79a6.36,6.36,0,0,0-3.89,1.27l-1.18-2.18a9,9,0,0,1,5.43-1.59C223.63,49.47,225.77,51.23,225.77,54.92Zm-3,3.51V56.94h-3.1c-2,0-2.59.77-2.59,1.7s.91,1.78,2.45,1.78A3.27,3.27,0,0,0,222.77,58.43Z"/><path class="cls-1" d="M228.14,61.16l1.16-2.28a8.53,8.53,0,0,0,4.46,1.28c1.9,0,2.69-.53,2.69-1.42,0-2.45-7.92-.14-7.92-5.26,0-2.42,2.18-4,5.64-4a10.16,10.16,0,0,1,4.8,1.11l-1.15,2.28a7,7,0,0,0-3.68-1c-1.82,0-2.68.6-2.68,1.44,0,2.59,7.92.29,7.92,5.3,0,2.4-2.21,4-5.81,4A10.18,10.18,0,0,1,228.14,61.16Z"/><path class="cls-1" d="M240.91,56a6.46,6.46,0,0,1,6.82-6.56c4,0,6.84,2.72,6.84,6.56s-2.86,6.57-6.84,6.57A6.47,6.47,0,0,1,240.91,56Zm10.63,0a3.81,3.81,0,1,0-7.6,0,3.81,3.81,0,1,0,7.6,0Z"/><path class="cls-1" d="M256,61.16l1.16-2.28a8.53,8.53,0,0,0,4.46,1.28c1.9,0,2.69-.53,2.69-1.42,0-2.45-7.92-.14-7.92-5.26,0-2.42,2.18-4,5.64-4a10.16,10.16,0,0,1,4.8,1.11l-1.15,2.28a7,7,0,0,0-3.68-1c-1.82,0-2.68.6-2.68,1.44,0,2.59,7.92.29,7.92,5.3,0,2.4-2.21,4-5.81,4A10.18,10.18,0,0,1,256,61.16Z"/><path class="cls-2" d="M62.71,37.3A30.56,30.56,0,1,0,32.15,67.86,30.56,30.56,0,0,0,62.71,37.3Z"/><path class="cls-3" d="M59.13,49.41A29.57,29.57,0,1,0,20.05,64.28,29.57,29.57,0,0,0,59.13,49.41Z"/><path class="cls-1" d="M31.65,33.37A6.2,6.2,0,0,0,33,35.86a1.11,1.11,0,0,0,0,.19v4.26a2.34,2.34,0,0,0,2.22,2.34,1.46,1.46,0,0,0,.09.71,1.42,1.42,0,0,0,1.33.9h1.48l-.66,1.15A4.59,4.59,0,0,0,31.2,49h-.78a.64.64,0,0,0,0,1.28h.78A4.57,4.57,0,0,0,32.57,53H31.13a.64.64,0,0,0,0,1.28h4.6a4.56,4.56,0,0,0,4.54-3.94h.49a1.65,1.65,0,0,0,1.53,1,1.56,1.56,0,0,0,.64-.13A4.6,4.6,0,0,0,44.08,53H42.29a.64.64,0,0,0,0,1.28h5a4.58,4.58,0,0,0,0-9.16,4.81,4.81,0,0,0-1.07.12l-1.81-4.6h1.74a.4.4,0,0,1,.38.27.38.38,0,0,1-.05.37.39.39,0,0,1-.33.17H46a.64.64,0,0,0,0,1.27h.15a1.68,1.68,0,0,0,1.37-.7,1.68,1.68,0,0,0-1.37-2.66H43.44a.63.63,0,0,0-.59.87L44,43H40l-.14-.34H40a2.35,2.35,0,0,0,2.35-2.34V36.05a.76.76,0,0,0,0-.21,5.87,5.87,0,0,0,1.2-2,2.84,2.84,0,0,0,2.92-1.34A3.09,3.09,0,0,0,46,28.72l-6.36-6.36a5.46,5.46,0,0,0-3.87-1.6H27.52a.81.81,0,0,0-.31.06l-5.32,2.29h-.63V21.54a.78.78,0,0,0-.78-.78H14.23a.78.78,0,0,0-.79.78V34.05a.78.78,0,0,0,.79.78h6.25a.78.78,0,0,0,.78-.78V32.49h.12c.56,1.87,3.07,3.12,5.35,3.12A6.21,6.21,0,0,0,31.65,33.37Zm-11.95-.1H15v-11H19.7Zm27.55,17a.59.59,0,0,0,.23,0,.64.64,0,0,0,.36-.82l-1.18-3a2.88,2.88,0,0,1,.59-.06,3.31,3.31,0,1,1-1.78.52l1.19,3A.62.62,0,0,0,47.25,50.3Zm-2.8-6L45,45.67a4.67,4.67,0,0,0-2.07,2.46,1.74,1.74,0,0,0-.64-.13l-.14,0-1.64-3.76Zm-5.13.47L41.2,49h-.93a4.55,4.55,0,0,0-1.72-3ZM35.73,53a3.31,3.31,0,1,1,1.08-6.43l-1.63,2.81a.66.66,0,0,0,0,.64.67.67,0,0,0,.55.32h1.48a1.6,1.6,0,0,1-1.48,1,.64.64,0,0,0,0,1.27,2.88,2.88,0,0,0,2.82-2.24H39A3.31,3.31,0,0,1,35.73,53ZM36.84,49l1.07-1.85A3.33,3.33,0,0,1,39,49Zm-.21-6a.14.14,0,0,1-.14-.1.14.14,0,0,1,0-.14.17.17,0,0,1,.13-.07h1.8l.12.31Zm4.18-2.68a.78.78,0,0,1-.79.78H35.33a.78.78,0,0,1-.78-.78v-3.2a6.18,6.18,0,0,0,1.69.68,1.58,1.58,0,1,0,.22-1.57,4.64,4.64,0,0,1-1.25-.54,6,6,0,0,1,2.47-.85,7.43,7.43,0,0,1,3.13,1.22Zm.58-5.73a8.53,8.53,0,0,0-3.71-1.31,8.55,8.55,0,0,0-3.7,1.3,4.45,4.45,0,0,1-.92-2.08H36.9a3,3,0,0,0,2.73-1.64L41.82,33l.27.23A4.48,4.48,0,0,1,41.39,34.58ZM40,29a3.16,3.16,0,0,0-.78-1.72,4.67,4.67,0,0,1,3.14,4.09Zm-9.35,2.71c0,1.18-1.93,2.34-3.91,2.34s-3.9-1.16-3.9-2.34a.79.79,0,0,0-.79-.79h-.78V24.67H22a.81.81,0,0,0,.31-.06l5.32-2.29h8.06a3.89,3.89,0,0,1,2.77,1.15l6.36,6.36a1.51,1.51,0,0,1,.28,1.86,1.44,1.44,0,0,1-1.21.66h0c0-.22,0-.43,0-.64a6.26,6.26,0,0,0-6.25-6.26,6.18,6.18,0,0,0-3,.78H28.3V27.8h8.6a1.56,1.56,0,1,1,0,3.12H31.43A.79.79,0,0,0,30.64,31.71Z"/></svg>