<svg id="Capa_1" data-name="Capa 1" xmlns="http://www.w3.org/2000/svg" viewBox="0 0 569 411"><defs><style>.cls-1{fill:#f1f1f1;}.cls-2,.cls-3{fill:none;stroke:#18c65e;stroke-miterlimit:10;}.cls-3{stroke-width:4px;}.cls-4{fill:#303130;}</style></defs><g id="Capa_3" data-name="Capa 3"><rect class="cls-1" x="4.19" y="13.38" width="557.34" height="386.36" rx="21.49"/><g id="Capa_3-2" data-name="Capa 3"><path class="cls-2" d="M323.62,76a37.88,37.88,0,1,0-37.88,37.88h0A37.87,37.87,0,0,0,323.62,76Z"/><path class="cls-3" d="M319.18,91a36.65,36.65,0,1,0-48.44,18.44A36.65,36.65,0,0,0,319.18,91Z"/><path class="cls-4" d="M282.61,71.76a7,7,0,0,0,1.58,2.9v5.22a2.73,2.73,0,0,0,2.6,2.73,1.57,1.57,0,0,0,.1.83,1.65,1.65,0,0,0,1.54,1h1.73l-.77,1.34a5.24,5.24,0,0,0-2-.39A5.32,5.32,0,0,0,282.11,90h-.9a.75.75,0,0,0-.17,1.49.48.48,0,0,0,.17,0h.9a5.33,5.33,0,0,0,1.6,3.11H282a.74.74,0,0,0,0,1.48h5.36a5.31,5.31,0,0,0,5.28-4.59h.57a1.93,1.93,0,0,0,2.52,1,5.4,5.4,0,0,0,1.34,2.08H295a.74.74,0,0,0,0,1.48h5.78a5.34,5.34,0,0,0,0-10.67,5.19,5.19,0,0,0-1.24.15l-2.11-5.37h2a.46.46,0,0,1,.44.32.47.47,0,0,1-.06.43.46.46,0,0,1-.38.2h-.2a.74.74,0,1,0,0,1.48h.18a1.93,1.93,0,0,0,1-3.59,2.11,2.11,0,0,0-1-.32h-3.08a.75.75,0,0,0-.62.32.73.73,0,0,0-.07.69L296.92,83h-4.68l-.16-.4h.25a2.73,2.73,0,0,0,2.73-2.73h0V74.61a7.14,7.14,0,0,0,1.4-2.3,3.3,3.3,0,0,0,3.39-1.56,3.58,3.58,0,0,0-.61-4.44l-7.41-7.41A6.36,6.36,0,0,0,287.32,57h-9.57a.9.9,0,0,0-.36.08l-6.15,2.7h-.73V58a.91.91,0,0,0-.91-.91h-7.28a.91.91,0,0,0-.91.91h0V72.55a.91.91,0,0,0,.91.91h7.28a.91.91,0,0,0,.91-.91h0V70.73h.13c.65,2.18,3.58,3.64,6.24,3.64A7.23,7.23,0,0,0,282.61,71.76Zm-13.92-.12h-5.45V58.89h5.46Zm32.08,19.83a1.22,1.22,0,0,0,.27,0,.76.76,0,0,0,.41-.4.8.8,0,0,0,0-.57L300.07,87a4,4,0,0,1,.69-.06,3.84,3.84,0,1,1-2.07.6l1.38,3.52A.74.74,0,0,0,300.77,91.47Zm-3.26-7,.64,1.64A5.4,5.4,0,0,0,295.74,89a1.93,1.93,0,0,0-.75-.15.43.43,0,0,0-.16,0l-1.91-4.38Zm-6,.54,2.18,5h-1.05a5.32,5.32,0,0,0-2-3.46Zm-4.18,9.6a3.85,3.85,0,1,1,0-7.7h0a4.09,4.09,0,0,1,1.25.2l-1.86,3.2a.77.77,0,0,0,0,.75.74.74,0,0,0,.64.37h1.72a1.86,1.86,0,0,1-1.72,1.13.74.74,0,1,0,0,1.48,3.35,3.35,0,0,0,3.28-2.61h.5a3.87,3.87,0,0,1-3.78,3.15Zm1.29-4.6,1.24-2.15A3.87,3.87,0,0,1,291.11,90Zm-.25-7a.16.16,0,0,1-.16-.11.14.14,0,0,1,0-.17.16.16,0,0,1,.14-.08h2.1l.14.36Zm4.87-3.18a.91.91,0,0,1-.91.91h-5.46a.9.9,0,0,1-.91-.89V76.12a7.17,7.17,0,0,0,2,.78,1.82,1.82,0,1,0,1.88-2.47,1.86,1.86,0,0,0-1.6.64,5.16,5.16,0,0,1-1.45-.62,7.23,7.23,0,0,1,2.88-1,8.56,8.56,0,0,1,3.57,1.43Zm.68-6.67a10.09,10.09,0,0,0-4.32-1.52,9.83,9.83,0,0,0-4.32,1.52,5.33,5.33,0,0,1-1-2.43h4.47a3.56,3.56,0,0,0,3.18-1.9l2.55,2.55.32.26a5.42,5.42,0,0,1-.81,1.52Zm-1.63-6.49a3.65,3.65,0,0,0-.91-2A5.45,5.45,0,0,1,295,69.43ZM281.4,69.82c0,1.38-2.25,2.73-4.55,2.73s-4.55-1.35-4.55-2.73a.91.91,0,0,0-.91-.91h-.91V61.63h.91a.9.9,0,0,0,.36-.08l6.19-2.66h9.39a4.52,4.52,0,0,1,3.22,1.34l7.41,7.4a1.78,1.78,0,0,1,.33,2.17,1.68,1.68,0,0,1-1.41.77h0v-.75a7.28,7.28,0,0,0-7.28-7.28,7.14,7.14,0,0,0-3.5.91h-7.43v1.86h10a1.82,1.82,0,0,1,0,3.64h-6.33a.91.91,0,0,0-.91.87Z"/><path class="cls-4" d="M226.31,127.15l-8,18.31H215l-8-18.31h3.69l6.08,14.16,6.15-14.12Z"/><path class="cls-4" d="M240,139.52H229a4.26,4.26,0,0,0,4.52,3.35,5,5,0,0,0,3.79-1.56l1.76,2a7.13,7.13,0,0,1-5.63,2.28c-4.68,0-7.71-3-7.71-7.17a7,7,0,0,1,6.89-7.11H233a6.81,6.81,0,0,1,7.07,6.54c0,.23,0,.45,0,.68S240,139.21,240,139.52Zm-11-2.17h7.93a3.81,3.81,0,0,0-4-3.4,3.86,3.86,0,0,0-3.91,3.36Z"/><path class="cls-4" d="M256.91,137.45v8h-3.26v-7.59c0-2.48-1.23-3.69-3.33-3.69-2.32,0-3.89,1.42-3.89,4.21v7.07h-3.27v-14h3.08v1.86a6,6,0,0,1,4.81-2C254.43,131.31,256.91,133.24,256.91,137.45Z"/><path class="cls-4" d="M274.88,126.05v19.41h-3.13v-1.81a5.73,5.73,0,0,1-4.63,2,7.16,7.16,0,0,1,0-14.31,5.69,5.69,0,0,1,4.49,1.89v-7.17Zm-3.21,12.42a4.17,4.17,0,1,0-4.16,4.37,4.09,4.09,0,0,0,4.17-4C271.68,138.72,271.68,138.6,271.67,138.47Z"/><path class="cls-4" d="M292.24,139.52h-11a4.28,4.28,0,0,0,4.53,3.35,5,5,0,0,0,3.79-1.52l1.75,2a7.06,7.06,0,0,1-5.62,2.28c-4.68,0-7.72-3-7.72-7.17a7,7,0,0,1,6.84-7.15h.43a6.81,6.81,0,0,1,7.07,6.54c0,.23,0,.45,0,.68S292.24,139.21,292.24,139.52Zm-11-2.21h8a3.8,3.8,0,0,0-4-3.4A3.85,3.85,0,0,0,281.24,137.31Z"/><path class="cls-4" d="M315.74,139.52h-11a4.26,4.26,0,0,0,4.53,3.35,5,5,0,0,0,3.79-1.52l1.75,2a7.1,7.1,0,0,1-5.62,2.28c-4.68,0-7.72-3-7.72-7.17a7,7,0,0,1,6.85-7.14h.37a6.81,6.81,0,0,1,7.07,6.54c0,.23,0,.45,0,.68A4.61,4.61,0,0,1,315.74,139.52Zm-11-2.17h7.92a3.8,3.8,0,0,0-4-3.4,3.85,3.85,0,0,0-3.95,3.36Z"/><path class="cls-4" d="M332.69,137.45v8h-3.27v-7.59c0-2.48-1.23-3.69-3.32-3.69-2.33,0-3.9,1.42-3.9,4.21v7.07h-3.27v-14H322v1.86a6.07,6.07,0,0,1,4.82-2C330.24,131.31,332.69,133.24,332.69,137.45Z"/><path class="cls-4" d="M356.07,140c0,3.09-2.32,5.76-7.24,5.76A11.53,11.53,0,0,1,342,143.6l1.46-2.64a8.55,8.55,0,0,0,5.37,1.8c2.43,0,3.87-1.07,3.87-2.77s-1.21-2.72-4-2.72H347v-2.33l4.16-4.94h-8.3v-2.85h12.47v2.27l-4.44,5.29C354.32,135.15,356.07,137.22,356.07,140Z"/><path class="cls-4" d="M186,170.23l1.29-2.49a9.36,9.36,0,0,0,4.86,1.39c2.07,0,2.93-.58,2.93-1.54,0-2.67-8.63-.16-8.63-5.73,0-2.64,2.38-4.37,6.15-4.37a11.16,11.16,0,0,1,5.23,1.2l-1.26,2.49a7.61,7.61,0,0,0-4-1.05c-2,0-2.93.66-2.93,1.57,0,2.83,8.63.32,8.63,5.78,0,2.62-2.4,4.32-6.33,4.32A11.16,11.16,0,0,1,186,170.23Z"/><path class="cls-4" d="M214.1,165.68h-11a4.25,4.25,0,0,0,4.52,3.34,5,5,0,0,0,3.79-1.51l1.76,2a7.13,7.13,0,0,1-5.63,2.28c-4.68,0-7.71-3-7.71-7.17a7,7,0,0,1,6.85-7.14h.37a6.81,6.81,0,0,1,7.07,6.54c0,.23,0,.45,0,.68A5.39,5.39,0,0,1,214.1,165.68Zm-11-2.17H211a3.8,3.8,0,0,0-3.95-3.4,3.87,3.87,0,0,0-4,3.4Z"/><path class="cls-4" d="M231.05,163.61v8h-3.27V164c0-2.49-1.23-3.69-3.33-3.69-2.32,0-3.89,1.41-3.89,4.21v7.06h-3.27v-14h3.11v1.8a6.06,6.06,0,0,1,4.81-2C228.56,157.49,231.05,159.4,231.05,163.61Z"/><path class="cls-4" d="M234.24,164.63c0-4.18,3.13-7.14,7.55-7.14a6.38,6.38,0,0,1,6,3.24l-2.55,1.47a4,4,0,0,0-3.52-1.89,4.37,4.37,0,1,0,0,8.74,4,4,0,0,0,3.52-2l2.51,1.47a6.35,6.35,0,0,1-6,3.27C237.32,171.8,234.24,168.81,234.24,164.63Z"/><path class="cls-4" d="M250.09,153.38a2,2,0,0,1,2-2h.09a2,2,0,0,1,2.06,1.93,2.09,2.09,0,1,1-4.18.07Zm.44,4.27h3.27v14h-3.27Z"/><path class="cls-4" d="M258.09,152.21h3.27v19.4h-3.27Z"/><path class="cls-4" d="M265.65,152.21h3.27v19.4h-3.27Z"/><path class="cls-4" d="M272.06,164.63c0-4.18,3.14-7.14,7.43-7.14s7.45,3,7.45,7.14a7.46,7.46,0,0,1-14.87.49C272.06,165,272.06,164.79,272.06,164.63Zm11.59,0a4.16,4.16,0,1,0-4.16,4.37,4.07,4.07,0,0,0,4.17-4C283.66,164.9,283.66,164.76,283.65,164.63Z"/><path class="cls-4" d="M288.49,170.23l1.25-2.49a9.42,9.42,0,0,0,4.87,1.39c2.06,0,2.92-.58,2.92-1.54,0-2.67-8.63-.16-8.63-5.73,0-2.64,2.38-4.37,6.15-4.37a11.16,11.16,0,0,1,5.23,1.2L299,161.18a7.7,7.7,0,0,0-4-1.05c-2,0-2.93.66-2.93,1.57,0,2.83,8.64.32,8.64,5.78,0,2.62-2.41,4.32-6.33,4.32A11.11,11.11,0,0,1,288.49,170.23Z"/><path class="cls-4" d="M325.6,164.63a6.82,6.82,0,0,1-6.43,7.17h-.66a5.7,5.7,0,0,1-4.47-1.89v6.78h-3.27v-19h3.11v1.83a5.73,5.73,0,0,1,4.63-2,6.8,6.8,0,0,1,7.09,6.5C325.61,164.22,325.61,164.43,325.6,164.63Zm-3.32,0a4.15,4.15,0,1,0-4.13,4.37,4.06,4.06,0,0,0,4.1-4c0-.12,0-.23,0-.35Z"/><path class="cls-4" d="M340.24,163.43v8.18h-3.1v-1.7c-.79,1.21-2.31,1.89-4.4,1.89-3.19,0-5.2-1.76-5.2-4.19s1.57-4.16,5.8-4.16H337v-.21c0-1.9-1.15-3-3.48-3a6.86,6.86,0,0,0-4.23,1.39L328,159.25a9.8,9.8,0,0,1,5.91-1.73C337.89,157.49,340.24,159.4,340.24,163.43ZM337,167.25v-1.63H333.6c-2.22,0-2.83.84-2.83,1.86,0,1.18,1,1.94,2.67,1.94a3.58,3.58,0,0,0,3.51-2.17Z"/><path class="cls-4" d="M342.81,170.23l1.26-2.49a9.36,9.36,0,0,0,4.86,1.39c2.07,0,2.93-.58,2.93-1.54,0-2.67-8.63-.16-8.63-5.73,0-2.64,2.38-4.37,6.15-4.37a11.16,11.16,0,0,1,5.23,1.2l-1.26,2.49a7.61,7.61,0,0,0-4-1.05c-2,0-2.93.66-2.93,1.57,0,2.83,8.63.32,8.63,5.78,0,2.62-2.4,4.32-6.33,4.32A11.06,11.06,0,0,1,342.81,170.23Z"/><path class="cls-4" d="M356.73,164.63c0-4.18,3.14-7.14,7.43-7.14s7.45,3,7.45,7.14a7.46,7.46,0,0,1-14.87.49C356.73,165,356.73,164.79,356.73,164.63Zm11.58,0a4.15,4.15,0,1,0-4.15,4.37,4.06,4.06,0,0,0,4.16-4C368.32,164.91,368.32,164.77,368.31,164.63Z"/><path class="cls-4" d="M373.15,170.23l1.26-2.49a9.36,9.36,0,0,0,4.86,1.39c2.07,0,2.93-.58,2.93-1.54,0-2.67-8.63-.16-8.63-5.73,0-2.64,2.38-4.37,6.15-4.37a11.16,11.16,0,0,1,5.23,1.2l-1.26,2.49a7.61,7.61,0,0,0-4-1.05c-2,0-2.93.66-2.93,1.57,0,2.83,8.63.32,8.63,5.78,0,2.62-2.4,4.32-6.32,4.32A11.11,11.11,0,0,1,373.15,170.23Z"/></g><path class="cls-4" d="M92.29,226.54l-3-4.3H86v4.3H82.48V211.13h6.67c4.11,0,6.69,2.14,6.69,5.59a5,5,0,0,1-3.17,4.86l3.45,5ZM89,214H86v5.37H89c2.18,0,3.28-1,3.28-2.69S91.13,214,89,214Z"/><path class="cls-4" d="M109.94,221.58h-9a3.16,3.16,0,0,0,3.39,2.38,4,4,0,0,0,3-1.14l1.83,2a6.22,6.22,0,0,1-4.89,1.91c-4.09,0-6.75-2.57-6.75-6.09a6,6,0,0,1,6.31-6.1,5.86,5.86,0,0,1,6.16,6.14C110,220.92,110,221.3,109.94,221.58Zm-9-2h5.83a3,3,0,0,0-5.83,0Z"/><path class="cls-4" d="M124.5,214.7v9.85c0,4.41-2.37,6.43-6.64,6.43a9.72,9.72,0,0,1-5.81-1.63l1.36-2.46a7.11,7.11,0,0,0,4.18,1.34c2.42,0,3.48-1.1,3.48-3.23v-.51a4.87,4.87,0,0,1-3.74,1.47,5.72,5.72,0,1,1,0-11.44,4.76,4.76,0,0,1,3.92,1.7V214.7Zm-3.39,5.54a3.12,3.12,0,0,0-6.22,0,3.12,3.12,0,0,0,6.22,0Z"/><path class="cls-4" d="M130.37,210h3.7l-4,3.17H127.4Zm-2.68,4.69h3.43v11.84h-3.43Z"/><path class="cls-4" d="M133.17,225.43l1.14-2.46a8.16,8.16,0,0,0,4.12,1.15c1.58,0,2.17-.42,2.17-1.08,0-1.94-7.15,0-7.15-4.69,0-2.24,2-3.83,5.48-3.83a9.75,9.75,0,0,1,4.56,1L142.34,218a6.78,6.78,0,0,0-3.41-.88c-1.54,0-2.2.48-2.2,1.1,0,2,7.15.06,7.15,4.73,0,2.2-2,3.76-5.59,3.76A10.1,10.1,0,0,1,133.17,225.43Z"/><path class="cls-4" d="M153.63,226a4.89,4.89,0,0,1-2.79.75c-2.8,0-4.43-1.43-4.43-4.25V217.6h-1.82V215h1.82v-2.88h3.43V215h2.95v2.64h-2.95v4.82a1.39,1.39,0,0,0,1.48,1.56,2.25,2.25,0,0,0,1.38-.44Z"/><path class="cls-4" d="M162.91,214.52v3.17c-.28,0-.5,0-.77,0-1.89,0-3.14,1-3.14,3.3v5.59h-3.44V214.7h3.28v1.56A4.8,4.8,0,0,1,162.91,214.52Z"/><path class="cls-4" d="M175.37,219.78v6.76h-3.21v-1.48a3.89,3.89,0,0,1-3.61,1.65c-2.78,0-4.43-1.54-4.43-3.59s1.48-3.54,5.09-3.54h2.72c0-1.47-.88-2.33-2.72-2.33a5.67,5.67,0,0,0-3.41,1.1l-1.24-2.4a9.16,9.16,0,0,1,5.11-1.43C173.28,214.52,175.37,216.19,175.37,219.78Zm-3.44,3v-1.21h-2.35c-1.61,0-2.11.6-2.11,1.39s.72,1.43,1.93,1.43A2.52,2.52,0,0,0,171.93,222.79Z"/><path class="cls-4" d="M178.47,210.21h3.43v16.33h-3.43Z"/><path class="cls-4" d="M195.56,219.78v6.76h-3.21v-1.48a3.88,3.88,0,0,1-3.61,1.65c-2.77,0-4.42-1.54-4.42-3.59s1.47-3.54,5.08-3.54h2.73c0-1.47-.88-2.33-2.73-2.33a5.72,5.72,0,0,0-3.41,1.1l-1.23-2.4a9.13,9.13,0,0,1,5.1-1.43C193.47,214.52,195.56,216.19,195.56,219.78Zm-3.43,3v-1.21h-2.35c-1.61,0-2.12.6-2.12,1.39s.73,1.43,1.94,1.43A2.52,2.52,0,0,0,192.13,222.79Z"/><path class="cls-4" d="M202.1,224.55a5.07,5.07,0,0,1-.6,2.2l-1.25,3.17h-2.18l1-3.5a1.89,1.89,0,0,1-1.19-1.87,2.13,2.13,0,0,1,4.25,0Z"/><path class="cls-4" d="M223.55,220.62a5.75,5.75,0,0,1-5.9,6.09,4.59,4.59,0,0,1-3.56-1.43v5.52h-3.44V214.7h3.28v1.36a4.62,4.62,0,0,1,3.72-1.54A5.76,5.76,0,0,1,223.55,220.62Zm-3.48,0a3,3,0,1,0-3,3.27A3,3,0,0,0,220.07,220.62Z"/><path class="cls-4" d="M225,220.62c0-3.57,2.75-6.1,6.52-6.1s6.49,2.53,6.49,6.1-2.73,6.09-6.49,6.09S225,224.18,225,220.62Zm9.53,0a3,3,0,1,0-3,3.27A3,3,0,0,0,234.48,220.62Z"/><path class="cls-4" d="M252.34,219.76v6.78h-3.43v-6.25c0-1.92-.88-2.8-2.4-2.8s-2.84,1-2.84,3.19v5.86h-3.43V214.7h3.28v1.38a5.2,5.2,0,0,1,3.92-1.56C250.23,214.52,252.34,216.15,252.34,219.76Z"/><path class="cls-4" d="M255.44,210.21h3.44v16.33h-3.44Z"/><path class="cls-4" d="M273.6,221.58h-9A3.16,3.16,0,0,0,268,224a4,4,0,0,0,3-1.14l1.83,2a6.22,6.22,0,0,1-4.89,1.91c-4.09,0-6.75-2.57-6.75-6.09a6,6,0,0,1,6.31-6.1,5.86,5.86,0,0,1,6.16,6.14C273.66,220.92,273.62,221.3,273.6,221.58Zm-9-2h5.83a3,3,0,0,0-5.83,0Z"/><path class="cls-4" d="M295.07,220.62a5.75,5.75,0,0,1-5.9,6.09,4.59,4.59,0,0,1-3.56-1.43v5.52h-3.44V214.7h3.28v1.36a4.62,4.62,0,0,1,3.72-1.54A5.76,5.76,0,0,1,295.07,220.62Zm-3.48,0a3,3,0,1,0-3,3.27A3,3,0,0,0,291.59,220.62Z"/><path class="cls-4" d="M304.7,214.52v3.17c-.28,0-.5,0-.77,0-1.89,0-3.14,1-3.14,3.3v5.59h-3.44V214.7h3.28v1.56A4.8,4.8,0,0,1,304.7,214.52Z"/><path class="cls-4" d="M318.17,221.58h-9A3.16,3.16,0,0,0,312.6,224a4,4,0,0,0,3-1.14l1.83,2a6.22,6.22,0,0,1-4.89,1.91c-4.09,0-6.75-2.57-6.75-6.09a6,6,0,0,1,6.31-6.1,5.86,5.86,0,0,1,6.16,6.14C318.23,220.92,318.19,221.3,318.17,221.58Zm-9-2H315a3,3,0,0,0-5.83,0Z"/><path class="cls-4" d="M319.64,220.62c0-3.57,2.75-6.1,6.6-6.1,2.49,0,4.45,1.08,5.3,3L328.88,219a2.94,2.94,0,0,0-2.66-1.63,3.28,3.28,0,0,0,0,6.55,2.91,2.91,0,0,0,2.66-1.62l2.66,1.45a5.48,5.48,0,0,1-5.3,3C322.39,226.71,319.64,224.18,319.64,220.62Z"/><path class="cls-4" d="M333.1,211.13a2,2,0,0,1,2.14-1.91,1.93,1.93,0,0,1,2.13,1.85,2.14,2.14,0,0,1-4.27.06Zm.42,3.57H337v11.84h-3.43Z"/><path class="cls-4" d="M339.26,220.62c0-3.57,2.75-6.1,6.52-6.1s6.49,2.53,6.49,6.1-2.73,6.09-6.49,6.09S339.26,224.18,339.26,220.62Zm9.53,0a3,3,0,1,0-3,3.27A3,3,0,0,0,348.79,220.62Z"/><path class="cls-4" d="M372.53,214.7l-5.35,12.56c-1.14,2.86-2.77,3.72-4.9,3.72a5.27,5.27,0,0,1-3.3-1.08l1.25-2.44a3.05,3.05,0,0,0,1.94.75c.94,0,1.47-.42,1.93-1.48l0-.11L359,214.7h3.54l3.33,8,3.34-8Z"/><path class="cls-4" d="M393.06,220.62a5.75,5.75,0,0,1-5.9,6.09,4.59,4.59,0,0,1-3.57-1.43v5.52h-3.43V214.7h3.28v1.36a4.62,4.62,0,0,1,3.72-1.54A5.76,5.76,0,0,1,393.06,220.62Zm-3.48,0a3,3,0,1,0-3,3.27A3,3,0,0,0,389.58,220.62Z"/><path class="cls-4" d="M407.27,214.7v11.84H404v-1.41a4.79,4.79,0,0,1-3.67,1.58c-3,0-5.06-1.67-5.06-5.32V214.7h3.43v6.18c0,2,.88,2.86,2.4,2.86s2.73-1,2.73-3.19V214.7Z"/><path class="cls-4" d="M423.35,220.62a5.75,5.75,0,0,1-5.9,6.09,4.59,4.59,0,0,1-3.72-1.54v1.37h-3.27V210.21h3.43V216a4.59,4.59,0,0,1,3.56-1.43A5.76,5.76,0,0,1,423.35,220.62Zm-3.48,0a3,3,0,1,0-3,3.27A3,3,0,0,0,419.87,220.62Z"/><path class="cls-4" d="M425.64,210.21h3.43v16.33h-3.43Z"/><path class="cls-4" d="M434.94,210h3.7l-4,3.17H432Zm-2.68,4.69h3.43v11.84h-3.43Z"/><path class="cls-4" d="M438,220.62c0-3.57,2.75-6.1,6.6-6.1,2.49,0,4.45,1.08,5.3,3L447.24,219a2.94,2.94,0,0,0-2.66-1.63,3.28,3.28,0,0,0,0,6.55,2.91,2.91,0,0,0,2.66-1.62l2.66,1.45a5.48,5.48,0,0,1-5.3,3C440.75,226.71,438,224.18,438,220.62Z"/><path class="cls-4" d="M462.35,219.78v6.76h-3.21v-1.48a3.88,3.88,0,0,1-3.61,1.65c-2.77,0-4.42-1.54-4.42-3.59s1.48-3.54,5.08-3.54h2.73c0-1.47-.88-2.33-2.73-2.33a5.72,5.72,0,0,0-3.41,1.1l-1.23-2.4a9.14,9.14,0,0,1,5.11-1.43C460.26,214.52,462.35,216.19,462.35,219.78Zm-3.43,3v-1.21h-2.35c-1.61,0-2.11.6-2.11,1.39s.72,1.43,1.93,1.43A2.52,2.52,0,0,0,458.92,222.79Z"/><path class="cls-4" d="M465.46,210.21h3.43v16.33h-3.43Z"/><path class="cls-4" d="M482.55,219.78v6.76h-3.21v-1.48a3.88,3.88,0,0,1-3.61,1.65c-2.77,0-4.42-1.54-4.42-3.59s1.47-3.54,5.08-3.54h2.73c0-1.47-.88-2.33-2.73-2.33a5.72,5.72,0,0,0-3.41,1.1l-1.23-2.4a9.13,9.13,0,0,1,5.1-1.43C480.46,214.52,482.55,216.19,482.55,219.78Zm-3.43,3v-1.21h-2.36c-1.6,0-2.11.6-2.11,1.39s.73,1.43,1.94,1.43A2.54,2.54,0,0,0,479.12,222.79Z"/><path class="cls-4" d="M484.82,224.55a2.14,2.14,0,0,1,4.27,0,2.14,2.14,0,1,1-4.27,0Z"/><path class="cls-4" d="M69,237.53l-6.66,15.4H58.79l-6.65-15.4H56l4.69,11,4.75-11Z"/><path class="cls-4" d="M80.66,248h-9a3.15,3.15,0,0,0,3.39,2.38,4,4,0,0,0,3-1.14l1.83,2A6.23,6.23,0,0,1,75,253.11c-4.09,0-6.75-2.57-6.75-6.09a6,6,0,0,1,6.31-6.1,5.86,5.86,0,0,1,6.16,6.14C80.72,247.32,80.68,247.7,80.66,248Zm-9-2h5.83a3,3,0,0,0-5.83,0Z"/><path class="cls-4" d="M101.34,246.16v6.77H97.9v-6.24c0-1.92-.88-2.8-2.4-2.8s-2.83,1-2.83,3.19v5.85H89.23V241.1h3.28v1.38a5.2,5.2,0,0,1,3.92-1.56C99.22,240.92,101.34,242.55,101.34,246.16Z"/><path class="cls-4" d="M116.36,241.1v11.83H113.1v-1.4a4.79,4.79,0,0,1-3.67,1.58c-3,0-5.06-1.67-5.06-5.32V241.1h3.43v6.18c0,2,.88,2.86,2.4,2.86s2.73-1,2.73-3.19V241.1Z"/><path class="cls-4" d="M131.08,248h-9a3.16,3.16,0,0,0,3.39,2.38,4,4,0,0,0,3-1.14l1.83,2a6.22,6.22,0,0,1-4.89,1.91c-4.09,0-6.75-2.57-6.75-6.09a6,6,0,0,1,6.31-6.1,5.86,5.86,0,0,1,6.17,6.14C131.15,247.32,131.1,247.7,131.08,248Zm-9-2h5.83a3,3,0,0,0-5.83,0Z"/><path class="cls-4" d="M132.29,251.83l1.14-2.46a8.13,8.13,0,0,0,4.12,1.14c1.58,0,2.17-.41,2.17-1.07,0-1.94-7.15,0-7.15-4.69,0-2.25,2-3.83,5.48-3.83a9.63,9.63,0,0,1,4.56,1l-1.15,2.44a6.78,6.78,0,0,0-3.41-.88c-1.54,0-2.2.48-2.2,1.1,0,2,7.15.06,7.15,4.73,0,2.2-2,3.76-5.59,3.76A10.1,10.1,0,0,1,132.29,251.83Z"/><path class="cls-4" d="M152.75,252.36a4.9,4.9,0,0,1-2.8.75c-2.79,0-4.42-1.43-4.42-4.25V244H143.7v-2.64h1.83v-2.88H149v2.88h2.95V244H149v4.82a1.38,1.38,0,0,0,1.48,1.56,2.27,2.27,0,0,0,1.38-.44Z"/><path class="cls-4" d="M162,240.92v3.17c-.28,0-.5-.05-.77-.05-1.89,0-3.14,1-3.14,3.31v5.58h-3.44V241.1H158v1.56A4.77,4.77,0,0,1,162,240.92Z"/><path class="cls-4" d="M174.49,246.18v6.75h-3.22v-1.47a3.87,3.87,0,0,1-3.6,1.65c-2.78,0-4.43-1.54-4.43-3.59s1.48-3.54,5.09-3.54h2.72c0-1.47-.88-2.33-2.72-2.33a5.67,5.67,0,0,0-3.41,1.1l-1.24-2.4a9.16,9.16,0,0,1,5.11-1.43C172.4,240.92,174.49,242.59,174.49,246.18Zm-3.44,3V248H168.7c-1.61,0-2.11.6-2.11,1.39s.72,1.43,1.93,1.43A2.52,2.52,0,0,0,171.05,249.19Z"/><path class="cls-4" d="M182.67,251.83l1.14-2.46a8.15,8.15,0,0,0,4.12,1.14c1.58,0,2.17-.41,2.17-1.07,0-1.94-7.15,0-7.15-4.69,0-2.25,2-3.83,5.48-3.83a9.63,9.63,0,0,1,4.56,1l-1.15,2.44a6.78,6.78,0,0,0-3.41-.88c-1.54,0-2.2.48-2.2,1.1,0,2,7.15.06,7.15,4.73,0,2.2-2,3.76-5.59,3.76A10.1,10.1,0,0,1,182.67,251.83Z"/><path class="cls-4" d="M207,248h-9a3.15,3.15,0,0,0,3.39,2.38,4,4,0,0,0,3-1.14l1.82,2a6.21,6.21,0,0,1-4.88,1.91c-4.09,0-6.76-2.57-6.76-6.09a6,6,0,0,1,6.32-6.1,5.86,5.86,0,0,1,6.16,6.14C207.09,247.32,207.05,247.7,207,248Zm-9-2h5.83a3,3,0,0,0-5.83,0Z"/><path class="cls-4" d="M208.5,247c0-3.57,2.75-6.1,6.6-6.1,2.48,0,4.44,1.08,5.3,3l-2.66,1.43a3,3,0,0,0-2.66-1.63,3.28,3.28,0,0,0,0,6.55,2.92,2.92,0,0,0,2.66-1.62l2.66,1.45a5.5,5.5,0,0,1-5.3,3C211.25,253.11,208.5,250.58,208.5,247Z"/><path class="cls-4" d="M221.34,247c0-3.57,2.75-6.1,6.6-6.1,2.49,0,4.45,1.08,5.31,3l-2.66,1.43a3,3,0,0,0-2.67-1.63,3.28,3.28,0,0,0,0,6.55,2.92,2.92,0,0,0,2.67-1.62l2.66,1.45a5.5,5.5,0,0,1-5.31,3C224.09,253.11,221.34,250.58,221.34,247Z"/><path class="cls-4" d="M234.81,237.53a2,2,0,0,1,2.13-1.91,1.93,1.93,0,0,1,2.14,1.85,2.14,2.14,0,0,1-4.27.06Zm.42,3.57h3.43v11.83h-3.43Z"/><path class="cls-4" d="M241,247c0-3.57,2.75-6.1,6.51-6.1S254,243.45,254,247s-2.73,6.09-6.49,6.09S241,250.58,241,247Zm9.53,0a3,3,0,1,0-3,3.27A3,3,0,0,0,250.5,247Zm-2.09-10.61h3.69l-4,3.17h-2.69Z"/><path class="cls-4" d="M268.36,246.16v6.77h-3.43v-6.24c0-1.92-.88-2.8-2.4-2.8s-2.84,1-2.84,3.19v5.85h-3.43V241.1h3.28v1.38a5.18,5.18,0,0,1,3.91-1.56C266.25,240.92,268.36,242.55,268.36,246.16Z"/><path class="cls-4" d="M289.74,236.61v16.32h-3.28v-1.36a4.55,4.55,0,0,1-3.69,1.54,6.1,6.1,0,0,1,0-12.19,4.54,4.54,0,0,1,3.54,1.43v-5.74ZM286.38,247a3,3,0,1,0-3,3.27A3,3,0,0,0,286.38,247Z"/><path class="cls-4" d="M304.44,248h-9a3.16,3.16,0,0,0,3.39,2.38,4,4,0,0,0,3-1.14l1.83,2a6.22,6.22,0,0,1-4.89,1.91c-4.09,0-6.75-2.57-6.75-6.09a6,6,0,0,1,6.31-6.1,5.86,5.86,0,0,1,6.16,6.14C304.5,247.32,304.46,247.7,304.44,248Zm-9-2h5.83a3,3,0,0,0-5.83,0Z"/><path class="cls-4" d="M320.37,240.92v3.17c-.29,0-.51-.05-.78-.05-1.89,0-3.14,1-3.14,3.31v5.58H313V241.1h3.27v1.56A4.78,4.78,0,0,1,320.37,240.92Z"/><path class="cls-4" d="M333.83,248h-8.95a3.15,3.15,0,0,0,3.38,2.38,4,4,0,0,0,3-1.14l1.82,2a6.21,6.21,0,0,1-4.88,1.91c-4.1,0-6.76-2.57-6.76-6.09a6,6,0,0,1,6.32-6.1,5.86,5.86,0,0,1,6.16,6.14C333.9,247.32,333.85,247.7,333.83,248Zm-9-2h5.83a3,3,0,0,0-5.83,0Z"/><path class="cls-4" d="M335.3,247c0-3.57,2.75-6.1,6.6-6.1,2.49,0,4.45,1.08,5.31,3l-2.67,1.43a2.93,2.93,0,0,0-2.66-1.63,3.28,3.28,0,0,0,0,6.55,2.9,2.9,0,0,0,2.66-1.62l2.67,1.45a5.5,5.5,0,0,1-5.31,3C338.05,253.11,335.3,250.58,335.3,247Z"/><path class="cls-4" d="M348.15,247c0-3.57,2.75-6.1,6.51-6.1s6.5,2.53,6.5,6.1-2.73,6.09-6.5,6.09S348.15,250.58,348.15,247Zm9.53,0a3,3,0,1,0-3,3.27A3,3,0,0,0,357.68,247Z"/><path class="cls-4" d="M383.44,246.16v6.77H380v-6.24c0-1.92-.86-2.8-2.25-2.8s-2.61,1-2.61,3.1v5.94h-3.44v-6.24c0-1.92-.81-2.8-2.24-2.8s-2.6,1-2.6,3.1v5.94h-3.43V241.1h3.28v1.36a4.8,4.8,0,0,1,3.72-1.54,4.4,4.4,0,0,1,3.89,1.94,5.34,5.34,0,0,1,4.27-1.94C381.42,240.92,383.44,242.55,383.44,246.16Z"/><path class="cls-4" d="M398.18,248h-8.95a3.15,3.15,0,0,0,3.38,2.38,4,4,0,0,0,3-1.14l1.82,2a6.21,6.21,0,0,1-4.88,1.91c-4.1,0-6.76-2.57-6.76-6.09a6,6,0,0,1,6.32-6.1,5.86,5.86,0,0,1,6.16,6.14C398.25,247.32,398.2,247.7,398.18,248Zm-9-2H395a3,3,0,0,0-5.83,0Z"/><path class="cls-4" d="M412.63,246.16v6.77H409.2v-6.24c0-1.92-.88-2.8-2.4-2.8s-2.83,1-2.83,3.19v5.85h-3.44V241.1h3.28v1.38a5.2,5.2,0,0,1,3.92-1.56C410.52,240.92,412.63,242.55,412.63,246.16Z"/><path class="cls-4" d="M427.92,236.61v16.32h-3.27v-1.36a4.58,4.58,0,0,1-3.7,1.54,6.1,6.1,0,0,1,0-12.19,4.53,4.53,0,0,1,3.54,1.43v-5.74ZM424.56,247a3,3,0,1,0-3,3.27A3,3,0,0,0,424.56,247Z"/><path class="cls-4" d="M441.57,246.18v6.75h-3.22v-1.47a3.88,3.88,0,0,1-3.61,1.65c-2.77,0-4.42-1.54-4.42-3.59S431.8,246,435.4,246h2.73c0-1.47-.88-2.33-2.73-2.33a5.72,5.72,0,0,0-3.41,1.1l-1.23-2.4a9.14,9.14,0,0,1,5.11-1.43C439.48,240.92,441.57,242.59,441.57,246.18Zm-3.44,3V248h-2.35c-1.61,0-2.11.6-2.11,1.39s.72,1.43,1.93,1.43A2.52,2.52,0,0,0,438.13,249.19Z"/><path class="cls-4" d="M443.92,247c0-3.57,2.75-6.1,6.6-6.1,2.48,0,4.44,1.08,5.3,3l-2.66,1.43a2.94,2.94,0,0,0-2.66-1.63,3.28,3.28,0,0,0,0,6.55,2.91,2.91,0,0,0,2.66-1.62l2.66,1.45a5.5,5.5,0,0,1-5.3,3C446.67,253.11,443.92,250.58,443.92,247Z"/><path class="cls-4" d="M457.38,237.53a2,2,0,0,1,2.14-1.91,1.93,1.93,0,0,1,2.13,1.85,2.14,2.14,0,0,1-4.27.06Zm.42,3.57h3.43v11.83H457.8Z"/><path class="cls-4" d="M463.54,247c0-3.57,2.75-6.1,6.51-6.1s6.5,2.53,6.5,6.1-2.73,6.09-6.5,6.09S463.54,250.58,463.54,247Zm9.53,0a3,3,0,1,0-3,3.27A3,3,0,0,0,473.07,247Z"/><path class="cls-4" d="M490.93,246.16v6.77H487.5v-6.24c0-1.92-.88-2.8-2.4-2.8s-2.84,1-2.84,3.19v5.85h-3.43V241.1h3.28v1.38a5.18,5.18,0,0,1,3.92-1.56C488.82,240.92,490.93,242.55,490.93,246.16Z"/><path class="cls-4" d="M505.7,248h-9a3.16,3.16,0,0,0,3.39,2.38,4,4,0,0,0,3-1.14l1.82,2a6.19,6.19,0,0,1-4.88,1.91c-4.09,0-6.75-2.57-6.75-6.09a6,6,0,0,1,6.31-6.1,5.86,5.86,0,0,1,6.16,6.14C505.76,247.32,505.72,247.7,505.7,248Zm-9-2h5.83a2.83,2.83,0,0,0-2.91-2.46A2.79,2.79,0,0,0,496.7,246Z"/><path class="cls-4" d="M506.9,251.83l1.15-2.46a8.09,8.09,0,0,0,4.11,1.14c1.59,0,2.18-.41,2.18-1.07,0-1.94-7.15,0-7.15-4.69,0-2.25,2-3.83,5.48-3.83a9.58,9.58,0,0,1,4.55,1l-1.14,2.44a6.8,6.8,0,0,0-3.41-.88c-1.54,0-2.2.48-2.2,1.1,0,2,7.15.06,7.15,4.73,0,2.2-2,3.76-5.59,3.76A10.14,10.14,0,0,1,506.9,251.83Z"/><path class="cls-4" d="M84.32,273.42a5.75,5.75,0,0,1-5.9,6.09,4.59,4.59,0,0,1-3.56-1.43v5.52H71.42V267.5H74.7v1.36a4.62,4.62,0,0,1,3.72-1.54A5.76,5.76,0,0,1,84.32,273.42Zm-3.48,0a3,3,0,1,0-3,3.27A3,3,0,0,0,80.84,273.42Z"/><path class="cls-4" d="M96.88,272.58v6.75H93.67v-1.47a3.88,3.88,0,0,1-3.61,1.65c-2.77,0-4.42-1.54-4.42-3.59s1.47-3.54,5.08-3.54h2.73c0-1.47-.88-2.33-2.73-2.33a5.72,5.72,0,0,0-3.41,1.1l-1.23-2.4a9.13,9.13,0,0,1,5.1-1.43C94.79,267.32,96.88,269,96.88,272.58Zm-3.43,3v-1.21H91.09c-1.6,0-2.11.6-2.11,1.39s.73,1.43,1.94,1.43A2.54,2.54,0,0,0,93.45,275.59Z"/><path class="cls-4" d="M107.33,267.32v3.17c-.29,0-.51,0-.77,0-1.89,0-3.15,1-3.15,3.3v5.58H100V267.5h3.28v1.56A4.79,4.79,0,0,1,107.33,267.32Z"/><path class="cls-4" d="M119.78,272.58v6.75h-3.21v-1.47a3.88,3.88,0,0,1-3.61,1.65c-2.77,0-4.42-1.54-4.42-3.59s1.47-3.54,5.08-3.54h2.73c0-1.47-.88-2.33-2.73-2.33a5.72,5.72,0,0,0-3.41,1.1l-1.23-2.4a9.14,9.14,0,0,1,5.11-1.43C117.69,267.32,119.78,269,119.78,272.58Zm-3.43,3v-1.21H114c-1.61,0-2.12.6-2.12,1.39s.73,1.43,1.94,1.43A2.54,2.54,0,0,0,116.35,275.59Z"/><path class="cls-4" d="M140.86,267.5l-5,11.83h-3.54l-5-11.83h3.54l3.28,8.05,3.39-8.05Z"/><path class="cls-4" d="M153.47,274.38h-9a3.15,3.15,0,0,0,3.39,2.38,4,4,0,0,0,3-1.14l1.82,2a6.21,6.21,0,0,1-4.88,1.91c-4.09,0-6.75-2.57-6.75-6.09a6,6,0,0,1,6.31-6.1,5.86,5.86,0,0,1,6.16,6.14C153.53,273.72,153.49,274.1,153.47,274.38Zm-9-2h5.83a2.83,2.83,0,0,0-2.91-2.46A2.79,2.79,0,0,0,144.47,272.38Z"/><path class="cls-4" d="M167.92,272.56v6.77h-3.43v-6.24c0-1.92-.88-2.8-2.4-2.8s-2.84,1-2.84,3.19v5.85h-3.43V267.5h3.27v1.38a5.22,5.22,0,0,1,3.92-1.56C165.81,267.32,167.92,269,167.92,272.56Z"/><path class="cls-4" d="M183.21,263v16.32h-3.28V278a4.57,4.57,0,0,1-3.7,1.54,6.1,6.1,0,0,1,0-12.19,4.55,4.55,0,0,1,3.55,1.43V263Zm-3.37,10.41a3,3,0,1,0-3,3.27A3,3,0,0,0,179.84,273.42Z"/><path class="cls-4" d="M197.91,274.38h-9a3.15,3.15,0,0,0,3.39,2.38,4,4,0,0,0,3-1.14l1.82,2a6.21,6.21,0,0,1-4.88,1.91c-4.09,0-6.75-2.57-6.75-6.09a6,6,0,0,1,6.31-6.1,5.86,5.86,0,0,1,6.16,6.14C198,273.72,197.93,274.1,197.91,274.38Zm-9-2h5.83a2.83,2.83,0,0,0-2.91-2.46A2.79,2.79,0,0,0,188.91,272.38Z"/><path class="cls-4" d="M212.31,263v16.32H209V278a4.58,4.58,0,0,1-3.7,1.54,6.1,6.1,0,0,1,0-12.19,4.54,4.54,0,0,1,3.54,1.43V263ZM209,273.42a3,3,0,1,0-3,3.27A3,3,0,0,0,209,273.42Z"/><path class="cls-4" d="M214.6,273.42c0-3.57,2.75-6.1,6.51-6.1s6.49,2.53,6.49,6.1-2.72,6.09-6.49,6.09S214.6,277,214.6,273.42Zm9.53,0a3,3,0,1,0-3,3.27A3,3,0,0,0,224.13,273.42Z"/><path class="cls-4" d="M237.24,267.32v3.17c-.29,0-.51,0-.77,0-1.89,0-3.15,1-3.15,3.3v5.58h-3.43V267.5h3.28v1.56A4.78,4.78,0,0,1,237.24,267.32Z"/><path class="cls-4" d="M250.71,274.38h-9a3.16,3.16,0,0,0,3.39,2.38,4,4,0,0,0,3-1.14l1.82,2a6.19,6.19,0,0,1-4.88,1.91c-4.09,0-6.75-2.57-6.75-6.09a6,6,0,0,1,6.31-6.1,5.86,5.86,0,0,1,6.16,6.14C250.77,273.72,250.73,274.1,250.71,274.38Zm-9-2h5.83a2.83,2.83,0,0,0-2.91-2.46A2.79,2.79,0,0,0,241.71,272.38Z"/><path class="cls-4" d="M251.91,278.23l1.15-2.46a8.09,8.09,0,0,0,4.11,1.15c1.59,0,2.18-.42,2.18-1.08,0-1.94-7.15,0-7.15-4.69,0-2.24,2-3.83,5.48-3.83a9.7,9.7,0,0,1,4.55,1l-1.14,2.44a6.8,6.8,0,0,0-3.41-.88c-1.54,0-2.2.48-2.2,1.1,0,2,7.15.06,7.15,4.73,0,2.2-2.05,3.76-5.59,3.76A10.14,10.14,0,0,1,251.91,278.23Z"/><path class="cls-4" d="M282.71,267.5l-5.34,12.56c-1.15,2.86-2.78,3.72-4.91,3.72a5.27,5.27,0,0,1-3.3-1.08l1.26-2.44a3,3,0,0,0,1.93.75c.95,0,1.48-.42,1.94-1.48l0-.11L269.2,267.5h3.55l3.32,8,3.34-8Z"/><path class="cls-4" d="M302.1,267.5l-5,11.83h-3.54l-5-11.83h3.54l3.28,8.05,3.39-8.05Z"/><path class="cls-4" d="M314.7,274.38h-8.95a3.15,3.15,0,0,0,3.39,2.38,4,4,0,0,0,3-1.14l1.82,2a6.21,6.21,0,0,1-4.88,1.91c-4.1,0-6.76-2.57-6.76-6.09a6,6,0,0,1,6.32-6.1,5.86,5.86,0,0,1,6.16,6.14C314.77,273.72,314.72,274.1,314.7,274.38Zm-9-2h5.83a3,3,0,0,0-5.83,0Z"/><path class="cls-4" d="M329.16,272.56v6.77h-3.44v-6.24c0-1.92-.88-2.8-2.39-2.8s-2.84,1-2.84,3.19v5.85h-3.44V267.5h3.28v1.38a5.2,5.2,0,0,1,3.92-1.56C327,267.32,329.16,269,329.16,272.56Z"/><path class="cls-4" d="M344.45,263v16.32h-3.28V278a4.57,4.57,0,0,1-3.7,1.54,6.1,6.1,0,0,1,0-12.19,4.53,4.53,0,0,1,3.54,1.43V263Zm-3.37,10.41a3,3,0,1,0-3,3.27A3,3,0,0,0,341.08,273.42Z"/><path class="cls-4" d="M359.14,274.38h-8.95a3.15,3.15,0,0,0,3.39,2.38,4,4,0,0,0,3-1.14l1.82,2a6.21,6.21,0,0,1-4.88,1.91c-4.1,0-6.76-2.57-6.76-6.09a6,6,0,0,1,6.32-6.1,5.86,5.86,0,0,1,6.16,6.14C359.21,273.72,359.16,274.1,359.14,274.38Zm-9-2H356a3,3,0,0,0-5.83,0Z"/><path class="cls-4" d="M387.72,272.56v6.77h-3.43v-6.24c0-1.92-.86-2.8-2.25-2.8-1.54,0-2.62,1-2.62,3.1v5.94H376v-6.24c0-1.92-.81-2.8-2.24-2.8s-2.6,1-2.6,3.1v5.94h-3.43V267.5H371v1.36a4.8,4.8,0,0,1,3.72-1.54,4.41,4.41,0,0,1,3.89,1.94,5.34,5.34,0,0,1,4.27-1.94C385.7,267.32,387.72,269,387.72,272.56Z"/><path class="cls-4" d="M401.27,272.58v6.75h-3.21v-1.47a3.88,3.88,0,0,1-3.61,1.65c-2.77,0-4.42-1.54-4.42-3.59s1.47-3.54,5.08-3.54h2.73c0-1.47-.88-2.33-2.73-2.33a5.72,5.72,0,0,0-3.41,1.1l-1.23-2.4a9.13,9.13,0,0,1,5.1-1.43C399.18,267.32,401.27,269,401.27,272.58Zm-3.43,3v-1.21h-2.36c-1.6,0-2.11.6-2.11,1.39s.73,1.43,1.94,1.43A2.54,2.54,0,0,0,397.84,275.59ZM396.61,266h-2.69l3-3.17h3.7Z"/><path class="cls-4" d="M403.23,278.23l1.14-2.46a8.13,8.13,0,0,0,4.12,1.15c1.58,0,2.18-.42,2.18-1.08,0-1.94-7.16,0-7.16-4.69,0-2.24,2-3.83,5.48-3.83a9.78,9.78,0,0,1,4.56,1l-1.15,2.44a6.78,6.78,0,0,0-3.41-.88c-1.54,0-2.2.48-2.2,1.1,0,2,7.15.06,7.15,4.73,0,2.2-2,3.76-5.59,3.76A10.1,10.1,0,0,1,403.23,278.23Z"/><path class="cls-4" d="M429.63,267.32v3.17c-.29,0-.51,0-.77,0-1.89,0-3.15,1-3.15,3.3v5.58h-3.43V267.5h3.28v1.56A4.78,4.78,0,0,1,429.63,267.32Z"/><path class="cls-4" d="M442.08,272.58v6.75h-3.21v-1.47a3.88,3.88,0,0,1-3.61,1.65c-2.77,0-4.42-1.54-4.42-3.59s1.47-3.54,5.08-3.54h2.73c0-1.47-.88-2.33-2.73-2.33a5.72,5.72,0,0,0-3.41,1.1l-1.23-2.4a9.13,9.13,0,0,1,5.1-1.43C440,267.32,442.08,269,442.08,272.58Zm-3.43,3v-1.21h-2.36c-1.6,0-2.11.6-2.11,1.39s.73,1.43,1.94,1.43A2.54,2.54,0,0,0,438.65,275.59ZM437.42,266h-2.69l3-3.17h3.7Z"/><path class="cls-4" d="M458.08,273.42a5.75,5.75,0,0,1-5.9,6.09,4.62,4.62,0,0,1-3.57-1.43v5.52h-3.43V267.5h3.28v1.36a4.61,4.61,0,0,1,3.72-1.54A5.76,5.76,0,0,1,458.08,273.42Zm-3.48,0a3,3,0,1,0-3,3.27A3,3,0,0,0,454.6,273.42Z"/><path class="cls-4" d="M459.94,263.93a2,2,0,0,1,2.14-1.91,1.93,1.93,0,0,1,2.13,1.85,2.14,2.14,0,0,1-4.27.06Zm.42,3.57h3.43v11.83h-3.43Z"/><path class="cls-4" d="M479,263v16.32h-3.28V278a4.55,4.55,0,0,1-3.69,1.54,6.1,6.1,0,0,1,0-12.19,4.54,4.54,0,0,1,3.54,1.43V263Zm-3.37,10.41a3,3,0,1,0-3,3.27A3,3,0,0,0,475.67,273.42Z"/><path class="cls-4" d="M481.33,273.42c0-3.57,2.75-6.1,6.51-6.1s6.49,2.53,6.49,6.1-2.73,6.09-6.49,6.09S481.33,277,481.33,273.42Zm9.52,0a3,3,0,1,0-3,3.27A3,3,0,0,0,490.85,273.42Z"/><path class="cls-4" d="M495.63,277.35a2.14,2.14,0,0,1,4.27,0,2.14,2.14,0,1,1-4.27,0Z"/></g></svg>